<svg xmlns="http://www.w3.org/2000/svg" viewBox="0 0 39.2 38.33"><defs><style>.cls-1{fill:#baa57d;}</style></defs><g id="Layer_2" data-name="Layer 2"><g id="Layer_1-2" data-name="Layer 1"><path class="cls-1" d="M18.55,15.08a2,2,0,0,0-2.22-2.22H14.72c-.81.05-1.18.47-1.18,1.34v3.17h2.84A2.11,2.11,0,0,0,18.55,15.08Z"/><path class="cls-1" d="M16.7,20.27H14.55c-.69.1-1,.52-1,1.33v3.77H16.7a2.35,2.35,0,0,0,2.53-2.56A2.36,2.36,0,0,0,16.7,20.27Z"/><path class="cls-1" d="M31.83,0H7.36A7.37,7.37,0,0,0,0,7.36V31a7.37,7.37,0,0,0,7.36,7.36H31.83A7.37,7.37,0,0,0,39.2,31V7.36A7.37,7.37,0,0,0,31.83,0ZM16.44,28.55H9.93V11.74a2,2,0,0,1,1.91-2h4.52c3.55,0,5.85,1.91,5.85,4.87a4.56,4.56,0,0,1-1.55,3.55l-.5.43.57.32a4.56,4.56,0,0,1,2.21,4.1C22.94,26.4,20.39,28.55,16.44,28.55Zm10.51,0a2.33,2.33,0,1,1,2.32-2.33A2.32,2.32,0,0,1,27,28.55Z"/></g></g></svg>