<svg xmlns="http://www.w3.org/2000/svg" viewBox="0 0 50.13 13.36"><defs><style>.cls-1{fill:#baa57d;}</style></defs><g id="Layer_2" data-name="Layer 2"><g id="Layer_1-2" data-name="Layer 1"><path class="cls-1" d="M11.27,0a1.85,1.85,0,0,1,1.32.53l10,10L22,11,12.07,1.07a1.13,1.13,0,0,0-1.61,0L.51,11,0,10.5l10-10A1.85,1.85,0,0,1,11.27,0Z"/><path class="cls-1" d="M11.27,4.55h0a1.57,1.57,0,0,1,1.1.46l7.82,7.83-.51.52L11.85,5.53a.81.81,0,0,0-.58-.25h0a.79.79,0,0,0-.58.25L2.86,13.36l-.52-.52L10.17,5A1.57,1.57,0,0,1,11.27,4.55Z"/><path class="cls-1" d="M38.87,13.35a1.9,1.9,0,0,1-1.33-.54l-9.94-10,.52-.52,9.94,10a1.16,1.16,0,0,0,1.62,0l9.94-9.95.51.52-9.94,10A1.86,1.86,0,0,1,38.87,13.35Z"/><path class="cls-1" d="M38.87,8.8h0a1.54,1.54,0,0,1-1.1-.45L29.94.52,30.46,0l7.83,7.82a.81.81,0,0,0,.58.25h0a.81.81,0,0,0,.58-.25L47.28,0l.51.52L40,8.35A1.52,1.52,0,0,1,38.87,8.8Z"/></g></g></svg>