<svg xmlns="http://www.w3.org/2000/svg" viewBox="0 0 30.5 20.43"><defs><style>.cls-1{fill:#baa57d;stroke:#baa57d;stroke-miterlimit:10;stroke-width:0.5px;}</style></defs><g id="Layer_2" data-name="Layer 2"><g id="Layer_1-2" data-name="Layer 1"><path class="cls-1" d="M26.89.25H3.61A3.37,3.37,0,0,0,.25,3.61V16.82a3.37,3.37,0,0,0,3.36,3.36H26.89a3.36,3.36,0,0,0,3.36-3.36V3.61A3.36,3.36,0,0,0,26.89.25Zm0,1.34a1.91,1.91,0,0,1,.68.13L15.24,11.38,2.55,1.9a2,2,0,0,1,1.06-.31ZM1.82,17.73a2,2,0,0,1-.23-.91V3.61A2.08,2.08,0,0,1,1.71,3l8.83,6.6Zm1.79,1.1a2,2,0,0,1-.82-.17l8.85-8.29,3.62,2.71,3-2.32,9,8a1.55,1.55,0,0,1-.31,0Zm25.3-2a2,2,0,0,1-.48,1.28L19.28,9.92,28.63,2.6a2,2,0,0,1,.28,1Z"/></g></g></svg>