<svg xmlns="http://www.w3.org/2000/svg" viewBox="0 0 39.19 38.33"><defs><style>.cls-1{fill:#baa57d;}</style></defs><g id="Layer_2" data-name="Layer 2"><g id="Layer_1-2" data-name="Layer 1"><path class="cls-1" d="M31.83,0H7.36A7.37,7.37,0,0,0,0,7.36V31a7.37,7.37,0,0,0,7.36,7.36H31.83A7.37,7.37,0,0,0,39.19,31V7.36A7.37,7.37,0,0,0,31.83,0ZM24.75,11.62a.28.28,0,0,1-.29.28H22.25a1,1,0,0,0-1,1v2.34h3.16a.27.27,0,0,1,.27.3l-.27,3.29a.28.28,0,0,1-.28.26H21.26V30a.28.28,0,0,1-.28.29H17a.27.27,0,0,1-.27-.29V19.08h-2a.29.29,0,0,1-.28-.28V15.5a.28.28,0,0,1,.28-.27h2V12.06a4,4,0,0,1,4-4h3.76a.29.29,0,0,1,.29.28Z"/></g></g></svg>