<svg id="Layer_1" data-name="Layer 1" xmlns="http://www.w3.org/2000/svg" viewBox="0 0 1115.06 678.22"><defs><style>.cls-1,.cls-24,.cls-44{font-size:9px;}.cls-1,.cls-17,.cls-18,.cls-24,.cls-27,.cls-31,.cls-44,.cls-46,.cls-49,.cls-9{fill:#baa57d;}.cls-1,.cls-24{font-family:GothamMedium;}.cls-1{letter-spacing:0.04em;}.cls-2,.cls-24{letter-spacing:0.06em;}.cls-3{letter-spacing:0.02em;}.cls-4{letter-spacing:0.05em;}.cls-5{letter-spacing:0.06em;}.cls-6{letter-spacing:0.06em;}.cls-7{fill:#132f19;}.cls-8{fill:#e8e1dc;}.cls-10,.cls-17,.cls-20,.cls-21,.cls-39,.cls-43{font-size:10px;}.cls-10,.cls-12{fill:#f0f0ef;}.cls-10,.cls-17,.cls-20,.cls-21{font-family:OpenSans, Open Sans;letter-spacing:0.06em;}.cls-11{letter-spacing:-0.04em;}.cls-12,.cls-18,.cls-19,.cls-38,.cls-40{font-size:12px;}.cls-12,.cls-18,.cls-19{font-family:GothamBold;}.cls-12{letter-spacing:0.03em;}.cls-13{letter-spacing:0.03em;}.cls-14,.cls-18,.cls-19{letter-spacing:0.03em;}.cls-15{fill:#f7f7f5;}.cls-16{fill:#f1f1ef;}.cls-19,.cls-20,.cls-55,.cls-56{fill:#fff;}.cls-21,.cls-23{fill:#ff2f19;}.cls-22,.cls-51{fill:none;stroke-miterlimit:10;}.cls-22{stroke:#ff2f19;}.cls-25{letter-spacing:0.06em;}.cls-26{letter-spacing:0.06em;}.cls-27,.cls-31{font-size:13.48px;}.cls-27{font-family:MADEMirage-Medium, MADEMirage Medium;font-weight:500;letter-spacing:0.09em;}.cls-28{letter-spacing:0.1em;}.cls-29{letter-spacing:0.09em;}.cls-30{letter-spacing:0.1em;}.cls-31,.cls-40,.cls-44{font-family:GothamBook;}.cls-31{letter-spacing:0.02em;}.cls-32{letter-spacing:0.02em;}.cls-33{font-size:3px;letter-spacing:0.1em;}.cls-33,.cls-35,.cls-38,.cls-40{fill:#a8a8a8;}.cls-33,.cls-46{font-family:TRENTO;}.cls-34{font-size:2px;letter-spacing:0.1em;}.cls-35{font-size:21px;letter-spacing:0.01em;}.cls-35,.cls-49{font-family:AugustScriptBoldfree;}.cls-36{letter-spacing:-0.15em;}.cls-37{font-size:11px;letter-spacing:0.01em;}.cls-38{font-family:MADEMirage;letter-spacing:0.14em;}.cls-39{letter-spacing:0.14em;}.cls-40{letter-spacing:0.02em;}.cls-41{letter-spacing:-0.06em;}.cls-42{letter-spacing:0.02em;}.cls-44{letter-spacing:0.02em;}.cls-45{letter-spacing:0.02em;}.cls-46{font-size:6px;letter-spacing:0.1em;}.cls-47{letter-spacing:0.07em;}.cls-48{letter-spacing:0.1em;}.cls-49{font-size:32px;}.cls-50{letter-spacing:-0.01em;}.cls-51{stroke:#baa57d;}.cls-52{letter-spacing:0.04em;}.cls-53{letter-spacing:0.06em;}.cls-54{fill:#132e18;}.cls-56{font-size:14px;font-family:Montserrat-Light, Montserrat;font-weight:300;}.cls-57{letter-spacing:-0.01em;}.cls-58{letter-spacing:0em;}.cls-59{letter-spacing:-0.03em;}.cls-60{letter-spacing:-0.01em;}.cls-61{letter-spacing:-0.04em;}</style></defs><text class="cls-1" transform="translate(0 7.53)">C<tspan class="cls-2" x="5.56" y="0">O</tspan><tspan class="cls-3" x="12.29" y="0">L</tspan><tspan class="cls-2" x="16.72" y="0">ORES DE </tspan><tspan class="cls-4" x="55.12" y="0">M</tspan><tspan class="cls-2" x="62.79" y="0">A</tspan><tspan class="cls-5" x="68.83" y="0">R</tspan><tspan class="cls-6" x="74.23" y="0">C</tspan><tspan class="cls-2" x="80.02" y="0">A</tspan></text><rect class="cls-7" y="27.53" width="246" height="85.49"/><rect class="cls-8" x="266" y="27.53" width="246" height="85.49"/><rect class="cls-9" y="129.02" width="246" height="85.49"/><text class="cls-10" transform="translate(20 182.02)"><tspan xml:space="preserve">RGB      </tspan><tspan class="cls-11" x="40.93" y="0"> </tspan><tspan x="43.13" y="0">186 - 165 - 125</tspan><tspan x="0" y="16.22" xml:space="preserve">HTML    #BAA57D</tspan></text><text class="cls-12" transform="translate(20 157.78)">ALMEND<tspan class="cls-13" x="46.61" y="0">R</tspan><tspan class="cls-14" x="53.48" y="0">A</tspan></text><rect class="cls-15" x="266" y="129.02" width="246" height="85.49"/><rect class="cls-16" x="266" y="214.51" width="246" height="54.36"/><text class="cls-17" transform="translate(286 182.02)"><tspan xml:space="preserve">RGB      </tspan><tspan class="cls-11" x="40.93" y="0"> </tspan><tspan x="43.13" y="0">247 - 247 - 245</tspan><tspan x="0" y="16.22" xml:space="preserve">HTML    #F7F7F5</tspan></text><text class="cls-17" transform="translate(286 238.02)"><tspan xml:space="preserve">RGB      </tspan><tspan class="cls-11" x="40.93" y="0"> </tspan><tspan x="43.13" y="0">241 - 241 - 239</tspan><tspan x="0" y="16.22" xml:space="preserve">HTML    #F1F1EF</tspan></text><text class="cls-18" transform="translate(286 157.78)">HUESO</text><text class="cls-19" transform="translate(20 56.29)">VERDE BOSQUE</text><text class="cls-18" transform="translate(286 56.29)">LINO</text><text class="cls-17" transform="translate(286 80.54)"><tspan xml:space="preserve">RGB      </tspan><tspan class="cls-11" x="40.93" y="0"> </tspan><tspan x="43.13" y="0">232 - 225 - 220</tspan><tspan x="0" y="16.22" xml:space="preserve">HTML    #E8E1DC</tspan></text><text class="cls-20" transform="translate(20 80.54)"><tspan xml:space="preserve">RGB      </tspan><tspan class="cls-11" x="40.93" y="0"> </tspan><tspan x="43.13" y="0">19 - 47 - 25</tspan><tspan x="0" y="16.22" xml:space="preserve">HTML    #132F19</tspan></text><text class="cls-21" transform="translate(92.29 262.69)">Background color for web</text><line class="cls-22" x1="234.5" y1="261.37" x2="273.35" y2="261.37"/><path class="cls-23" d="M333.25,322.75A2.26,2.26,0,1,0,331,320.5,2.25,2.25,0,0,0,333.25,322.75Z" transform="translate(-60 -59.13)"/><text class="cls-24" transform="translate(568.14 7.53)">TIPOG<tspan class="cls-25" x="26.08" y="0">R</tspan><tspan x="31.5" y="0">AFÍAS DE </tspan><tspan class="cls-4" x="72.5" y="0">M</tspan><tspan x="80.18" y="0">A</tspan><tspan class="cls-5" x="86.22" y="0">R</tspan><tspan class="cls-26" x="91.62" y="0">C</tspan><tspan x="97.41" y="0">A</tspan></text><text class="cls-27" transform="translate(568.14 129.8)">M<tspan class="cls-28" x="12.04" y="0">ADE mi</tspan><tspan class="cls-29" x="61.16" y="0">r</tspan><tspan class="cls-30" x="66.83" y="0">age</tspan></text><text class="cls-31" transform="translate(867.14 129.8)">G<tspan class="cls-32" x="9.02" y="0">otham</tspan></text><text class="cls-33" transform="translate(568.14 87.19)">A B C D E F G H I J K <tspan class="cls-34" x="30.88" y="0" xml:space="preserve"> 1 2 3 4 5 6 7 8 9 0</tspan></text><text class="cls-35" transform="translate(868.34 87.19)">a b c d e f g h i j k l<tspan class="cls-36" x="161.51" y="0"> </tspan><tspan x="162.79" y="0"> </tspan><tspan class="cls-37" x="167.43" y="0">1 2 3 4 5 6 7 8 9 0</tspan></text><text class="cls-38" transform="translate(568.14 150.54)"><tspan xml:space="preserve">A B C d e f g h i j k l  </tspan><tspan class="cls-39" x="139.71" y="0">1 2 3 4 5 6 7 8 9 0</tspan></text><text class="cls-40" transform="translate(867.14 150.54)">A B C d e f g h i j k l m<tspan class="cls-41" x="111.18" y="0"> </tspan><tspan class="cls-42" x="113" y="0"> </tspan><tspan class="cls-43" x="115.79" y="0">1 2 3 4 5 6 7 8 9 0</tspan></text><text class="cls-44" transform="translate(966.79 59.6)">(august sc<tspan class="cls-45" x="39.51" y="0">r</tspan><tspan x="42.65" y="0">ipt)</tspan></text><text class="cls-46" transform="translate(568.14 62.6)">TREN<tspan class="cls-47" x="15.49" y="0">T</tspan><tspan class="cls-48" x="18.9" y="0">O</tspan></text><text class="cls-49" transform="translate(867.49 58.63)"><tspan class="cls-50">A</tspan><tspan x="19.2" y="0">ugust</tspan></text><polygon class="cls-7" points="924.07 394.65 923.05 395.75 927.93 400.28 784.67 400.28 784.67 401.28 927.93 401.28 923.05 405.82 924.07 406.92 930.67 400.78 924.07 394.65"/><polygon class="cls-7" points="761.43 400.28 618.17 400.28 623.05 395.75 622.03 394.65 615.43 400.78 622.03 406.91 623.05 405.81 618.17 401.28 761.43 401.28 761.43 400.28"/><line class="cls-51" x1="115" y1="7.53" x2="511.99" y2="7.53"/><line class="cls-51" x1="707" y1="7.53" x2="1103.99" y2="7.53"/><text class="cls-24" transform="translate(1.74 331.54)">G<tspan class="cls-25" x="6.34" y="0">R</tspan><tspan x="11.76" y="0">ÁFI</tspan><tspan class="cls-52" x="25.4" y="0">C</tspan><tspan class="cls-53" x="30.96" y="0">OS</tspan></text><line class="cls-51" x1="60.58" y1="331.54" x2="1103.99" y2="331.54"/><polygon class="cls-7" points="948.34 404.87 947.66 404.14 951.27 400.78 947.66 397.42 948.34 396.69 952.74 400.78 948.34 404.87"/><polygon class="cls-7" points="970.08 408.19 968.85 406.87 975.39 400.78 968.85 394.7 970.08 393.37 978.05 400.78 970.08 408.19"/><path class="cls-9" d="M537,517.5a23.06,23.06,0,1,1,23.06-23.06A23.09,23.09,0,0,1,537,517.5Zm0-45.33a22.28,22.28,0,1,0,22.27,22.27A22.29,22.29,0,0,0,537,472.17Zm0,29.67a7.4,7.4,0,1,1,7.39-7.4A7.4,7.4,0,0,1,537,501.84Zm0-14a6.61,6.61,0,1,0,6.61,6.6A6.61,6.61,0,0,0,537,487.84Z" transform="translate(-60 -59.13)"/><path class="cls-9" d="M511.14,551.67l-.72-.34a63.66,63.66,0,0,1-8.42-4.76l-.68-.47,8.87-12.17L507.56,532l-8.87,12.18-.65-.52a61.82,61.82,0,0,1-7.41-6.9l-.56-.62,11.5-9.7L499.48,524,488,533.67l-.51-.65a64.67,64.67,0,0,1-5.47-8.27l-.4-.73,13.47-6.76-1.46-2.9-13.47,6.75-.34-.75a62.86,62.86,0,0,1-3.38-9.32l-.21-.79,14.55-3.39-.74-3.17-14.55,3.38-.16-.81a62.64,62.64,0,0,1-1.05-9.36l0-.83h15.07v-3.25H474.21l0-.83a63.61,63.61,0,0,1,.86-8.18l.11-.66H512.4l-.45,1.09A27,27,0,0,0,525.67,519l.74.34Zm-8.71-5.76h0a61.59,61.59,0,0,0,8.32,4.71h0l14.6-30.93h0a27.89,27.89,0,0,1-16.17-25.24A27.58,27.58,0,0,1,511.23,484H475.88A62.25,62.25,0,0,0,475,492h15v4.83H475a62.19,62.19,0,0,0,1,9.25h0l14.53-3.37,1.09,4.69-14.52,3.38h0a61.23,61.23,0,0,0,3.33,9.2h0L494,513.31l2.16,4.3-13.44,6.74v0a63.16,63.16,0,0,0,5.41,8.17h0l11.48-9.69,3.11,3.69-11.48,9.69h0a61.85,61.85,0,0,0,7.32,6.81h0l8.85-12.15,3.9,2.84Z" transform="translate(-60 -59.13)"/><path class="cls-9" d="M562.82,551.67,547.56,519.3l.73-.34A27.06,27.06,0,0,0,564,494.44a26.69,26.69,0,0,0-2-10.19l-.45-1.1h37.19l.11.66a63.52,63.52,0,0,1,.86,8.18l0,.83H584.68v3.25h15.07l0,.83a63.83,63.83,0,0,1-1.06,9.36l-.15.81L584,503.69l-.74,3.17,14.56,3.39-.22.79a63.91,63.91,0,0,1-3.38,9.32l-.33.75-13.48-6.75-1.45,2.9L592.38,524l-.41.73A63.32,63.32,0,0,1,586.5,533l-.51.65L574.49,524l-2.11,2.49,11.51,9.7-.56.62a63.37,63.37,0,0,1-7.41,6.9l-.65.51L566.4,532l-2.63,1.92,8.88,12.17-.69.47a62.89,62.89,0,0,1-8.42,4.76Zm-14.21-32,14.59,30.94h0a62.44,62.44,0,0,0,8.31-4.71h0l-8.86-12.16,3.9-2.83,8.85,12.15,0,0a62.49,62.49,0,0,0,7.31-6.81h0l-11.48-9.69,3.11-3.69,11.49,9.7v0a61.6,61.6,0,0,0,5.39-8.16v0l-13.44-6.74,2.16-4.3L593.45,520h0a61.84,61.84,0,0,0,3.33-9.2h0l-14.52-3.38,1.09-4.69,14.52,3.37h0a62.19,62.19,0,0,0,1-9.25h-15V492h15a62,62,0,0,0-.86-8.08H562.73a27.51,27.51,0,0,1,2.06,10.49,27.89,27.89,0,0,1-16.17,25.24Z" transform="translate(-60 -59.13)"/><path class="cls-9" d="M539.51,557.17h-6.13v-.1a62.38,62.38,0,0,1-18.4-3.82l-.82-.31,15.35-32.54.64.17a27.23,27.23,0,0,0,4.41.74l.36,0V550h3.76V521.38l.36,0a27.25,27.25,0,0,0,4.78-.78l.64-.17,15.34,32.54-.81.31a62.5,62.5,0,0,1-19.09,3.87h0Zm-5.35-.79,5.33,0a61.7,61.7,0,0,0,19.22-3.84h0L544,521.33h0a27.7,27.7,0,0,1-4.55.77v28.71h-5.33V522.06a27.18,27.18,0,0,1-4.18-.73h0l-14.7,31.18h0a61.32,61.32,0,0,0,18.54,3.79l.37,0Z" transform="translate(-60 -59.13)"/><path class="cls-9" d="M503.48,479.9h-6.93l.2-.54a43,43,0,0,1,38.16-27.84l.41,0v6.44l-.37,0a36.41,36.41,0,0,0-31.36,21.71Zm-5.79-.79H503a37.18,37.18,0,0,1,31.55-21.91v-4.88A42.18,42.18,0,0,0,497.69,479.11Z" transform="translate(-60 -59.13)"/><path class="cls-9" d="M493.13,479.9h-7l.15-.51a52.92,52.92,0,0,1,48.65-37.85h.41v6.71l-.38,0a46.52,46.52,0,0,0-41.72,31.37Zm-6-.79h5.4a47.33,47.33,0,0,1,42-31.62v-5.14A52.11,52.11,0,0,0,487.17,479.11Z" transform="translate(-60 -59.13)"/><path class="cls-9" d="M514.2,479.9h-7.13l.29-.57a33.46,33.46,0,0,1,27.54-18.1l.42,0v6.29l-.73.06a27.05,27.05,0,0,0-9.87,2.84l-.54.27,0,0a25.38,25.38,0,0,0-2.84,1.7l.07.07-.71.54a27.14,27.14,0,0,0-6.22,6.61Zm-5.84-.79h5.43a27.57,27.57,0,0,1,6.4-6.8h0l-.1-.1.37-.27a31.62,31.62,0,0,1,3.59-2.16l.27-.13,0,.05h0a27.49,27.49,0,0,1,10.15-2.92h0V462A32.69,32.69,0,0,0,508.36,479.11Z" transform="translate(-60 -59.13)"/><path class="cls-9" d="M598.08,479.9h-6.82l-.07-.29a56.78,56.78,0,0,0-19.12-29A55.58,55.58,0,0,0,539,438.3l-.38,0-3.68,0a55.59,55.59,0,0,0-33,12.3,56.78,56.78,0,0,0-19.09,29l-.08.29h-6.87l.26-1a63.08,63.08,0,0,1,58.13-47.15v0l.39-.05h5v.06a63.08,63.08,0,0,1,58.19,47.16Zm-6.22-.79h5.2a62.3,62.3,0,0,0-57.64-46.58l-.57,0H535l-.45,0a62.3,62.3,0,0,0-57.64,46.58h5.25A57.56,57.56,0,0,1,501.41,450a56.4,56.4,0,0,1,33.12-12.47h0l.39,0,4.49,0A56.38,56.38,0,0,1,572.56,450,57.5,57.5,0,0,1,591.86,479.11Z" transform="translate(-60 -59.13)"/><path class="cls-9" d="M577.44,479.9h-6.93l-.1-.23A36.43,36.43,0,0,0,539,458l-.38,0v-6.45l.42,0a43,43,0,0,1,38.2,27.85Zm-6.42-.79h5.28a42.17,42.17,0,0,0-36.89-26.79v4.88A37.18,37.18,0,0,1,571,479.11Z" transform="translate(-60 -59.13)"/><path class="cls-9" d="M587.89,479.9h-7l-.08-.27A46.54,46.54,0,0,0,539,448.25h-.38v-6.71H539a52.94,52.94,0,0,1,48.71,37.85Zm-6.46-.79h5.4a52.13,52.13,0,0,0-47.42-36.76v5.14A47.33,47.33,0,0,1,581.43,479.11Z" transform="translate(-60 -59.13)"/><path class="cls-9" d="M566.93,479.9h-7.19l-.12-.17a28.27,28.27,0,0,0-19.12-12.05l-1.15-.13-.73-.06V461.2l.42,0a33.46,33.46,0,0,1,27.6,18.11Zm-6.78-.79h5.49A32.68,32.68,0,0,0,539.41,462v4.73l1.18.13A29,29,0,0,1,560.15,479.11Z" transform="translate(-60 -59.13)"/><path class="cls-9" d="M407.58,724a1.86,1.86,0,0,1,1.32.54l10,10-.52.52-9.94-10a1.16,1.16,0,0,0-1.62,0l-9.94,10-.52-.52,9.95-10A1.86,1.86,0,0,1,407.58,724Z" transform="translate(-60 -59.13)"/><path class="cls-9" d="M407.58,728.54h0a1.54,1.54,0,0,1,1.09.45l7.82,7.83-.51.52-7.83-7.83a.83.83,0,0,0-.58-.24h0a.83.83,0,0,0-.58.24l-7.83,7.83-.51-.52,7.82-7.83A1.56,1.56,0,0,1,407.58,728.54Z" transform="translate(-60 -59.13)"/><path class="cls-9" d="M435.18,737.33a1.84,1.84,0,0,1-1.32-.54l-9.95-9.95.52-.51,9.95,9.94a1.13,1.13,0,0,0,1.61,0l9.94-9.94.52.51-9.94,9.95A1.86,1.86,0,0,1,435.18,737.33Z" transform="translate(-60 -59.13)"/><path class="cls-9" d="M435.18,732.79h0a1.53,1.53,0,0,1-1.09-.46l-7.84-7.83.53-.52,7.83,7.83a.77.77,0,0,0,.57.25h0a.81.81,0,0,0,.58-.25l7.83-7.83.51.52-7.82,7.83A1.57,1.57,0,0,1,435.18,732.79Z" transform="translate(-60 -59.13)"/><path class="cls-9" d="M462.78,724a1.86,1.86,0,0,1,1.32.54l9.95,10-.52.52-9.95-10a1.15,1.15,0,0,0-1.61,0L452,735l-.52-.52,9.95-10A1.86,1.86,0,0,1,462.78,724Z" transform="translate(-60 -59.13)"/><path class="cls-9" d="M462.78,728.54h0a1.56,1.56,0,0,1,1.1.45l7.83,7.83-.52.52-7.84-7.83a.8.8,0,0,0-.57-.24h0a.83.83,0,0,0-.58.24l-7.83,7.83-.52-.52,7.83-7.83A1.54,1.54,0,0,1,462.78,728.54Z" transform="translate(-60 -59.13)"/><path class="cls-9" d="M490.38,737.33a1.84,1.84,0,0,1-1.33-.54l-9.94-9.95.51-.51,9.95,9.94a1.14,1.14,0,0,0,1.62,0l9.94-9.94.51.51-9.94,9.95A1.84,1.84,0,0,1,490.38,737.33Z" transform="translate(-60 -59.13)"/><path class="cls-9" d="M490.38,732.79h0a1.55,1.55,0,0,1-1.09-.46l-7.83-7.83L482,724l7.83,7.83a.77.77,0,0,0,.57.25h0a.77.77,0,0,0,.57-.25l7.84-7.83.51.52-7.83,7.83A1.55,1.55,0,0,1,490.38,732.79Z" transform="translate(-60 -59.13)"/><path class="cls-9" d="M518,724a1.9,1.9,0,0,1,1.33.54l9.94,10-.51.52-10-10a1.16,1.16,0,0,0-1.62,0l-9.94,10-.51-.52,9.94-10A1.86,1.86,0,0,1,518,724Z" transform="translate(-60 -59.13)"/><path class="cls-9" d="M518,728.54h0a1.54,1.54,0,0,1,1.09.45l7.83,7.83-.52.52-7.83-7.83a.82.82,0,0,0-.57-.24h0a.84.84,0,0,0-.58.24l-7.83,7.83-.51-.52,7.83-7.83A1.54,1.54,0,0,1,518,728.54Z" transform="translate(-60 -59.13)"/><path class="cls-9" d="M545.57,737.33a1.84,1.84,0,0,1-1.32-.54l-10-9.95.52-.51,9.95,9.94a1.13,1.13,0,0,0,1.61,0l9.94-9.94.52.51-9.94,9.95A1.86,1.86,0,0,1,545.57,737.33Z" transform="translate(-60 -59.13)"/><path class="cls-9" d="M545.57,732.79h0a1.53,1.53,0,0,1-1.09-.46l-7.83-7.83.52-.52,7.83,7.83a.77.77,0,0,0,.57.25h0a.79.79,0,0,0,.58-.25L554,724l.52.52-7.83,7.83A1.55,1.55,0,0,1,545.57,732.79Z" transform="translate(-60 -59.13)"/><path class="cls-9" d="M573.17,724a1.86,1.86,0,0,1,1.32.54l10,10-.51.52-10-10a1.15,1.15,0,0,0-1.61,0l-9.94,10-.52-.52,9.94-10A1.9,1.9,0,0,1,573.17,724Z" transform="translate(-60 -59.13)"/><path class="cls-9" d="M573.17,728.54h0a1.5,1.5,0,0,1,1.09.45l7.84,7.83-.52.52-7.84-7.83a.8.8,0,0,0-.57-.24h0a.84.84,0,0,0-.58.24l-7.83,7.83-.52-.52,7.83-7.83A1.56,1.56,0,0,1,573.17,728.54Z" transform="translate(-60 -59.13)"/><path class="cls-9" d="M600.77,737.33a1.82,1.82,0,0,1-1.32-.54l-10-9.95.52-.51,9.94,9.94a1.14,1.14,0,0,0,1.62,0l9.94-9.94.52.51-9.95,9.95A1.82,1.82,0,0,1,600.77,737.33Z" transform="translate(-60 -59.13)"/><path class="cls-9" d="M600.77,732.79h0a1.55,1.55,0,0,1-1.09-.46l-7.83-7.83.52-.52,7.83,7.83a.79.79,0,0,0,.57.25h0a.79.79,0,0,0,.58-.25l7.83-7.83.51.52-7.83,7.83A1.55,1.55,0,0,1,600.77,732.79Z" transform="translate(-60 -59.13)"/><path class="cls-9" d="M628.37,724a1.88,1.88,0,0,1,1.32.54l9.94,10-.52.52-9.94-10a1.16,1.16,0,0,0-1.62,0l-9.94,10-.51-.52,9.94-10A1.88,1.88,0,0,1,628.37,724Z" transform="translate(-60 -59.13)"/><path class="cls-9" d="M628.37,728.54h0a1.54,1.54,0,0,1,1.09.45l7.83,7.83-.51.52-7.84-7.83a.82.82,0,0,0-.57-.24h0a.85.85,0,0,0-.59.24L620,737.34l-.52-.52,7.83-7.83A1.54,1.54,0,0,1,628.37,728.54Z" transform="translate(-60 -59.13)"/><path class="cls-9" d="M656,737.33a1.82,1.82,0,0,1-1.32-.54l-9.95-9.95.52-.51,9.95,9.94a1.13,1.13,0,0,0,1.61,0l10-9.94.51.51-9.94,9.95A1.86,1.86,0,0,1,656,737.33Z" transform="translate(-60 -59.13)"/><path class="cls-9" d="M656,732.79h0a1.57,1.57,0,0,1-1.1-.46L647,724.5l.52-.52,7.84,7.83a.77.77,0,0,0,.57.25h0a.79.79,0,0,0,.58-.25l7.83-7.83.52.52-7.83,7.83A1.55,1.55,0,0,1,656,732.79Z" transform="translate(-60 -59.13)"/><path class="cls-9" d="M683.56,724a1.86,1.86,0,0,1,1.32.54l10,10-.52.52-9.95-10a1.15,1.15,0,0,0-1.61,0l-9.94,10-.52-.52,9.94-10A1.9,1.9,0,0,1,683.56,724Z" transform="translate(-60 -59.13)"/><path class="cls-9" d="M683.56,728.54h0a1.52,1.52,0,0,1,1.09.45l7.84,7.83-.52.52-7.83-7.83a.83.83,0,0,0-.58-.24h0a.84.84,0,0,0-.58.24l-7.83,7.83-.52-.52,7.83-7.83A1.56,1.56,0,0,1,683.56,728.54Z" transform="translate(-60 -59.13)"/><path class="cls-9" d="M711.16,737.33a1.86,1.86,0,0,1-1.33-.54l-9.94-9.95.52-.51,9.94,9.94a1.14,1.14,0,0,0,1.62,0l9.94-9.94.52.51-9.95,9.95A1.82,1.82,0,0,1,711.16,737.33Z" transform="translate(-60 -59.13)"/><path class="cls-9" d="M711.16,732.79h0a1.55,1.55,0,0,1-1.09-.46l-7.82-7.83.51-.52,7.83,7.83a.79.79,0,0,0,.57.25h0a.81.81,0,0,0,.58-.25l7.83-7.83.51.52-7.83,7.83A1.53,1.53,0,0,1,711.16,732.79Z" transform="translate(-60 -59.13)"/><path class="cls-9" d="M738.76,724a1.88,1.88,0,0,1,1.32.54l9.94,10-.51.52-10-10a1.15,1.15,0,0,0-1.61,0l-10,10-.51-.52,9.94-10A1.88,1.88,0,0,1,738.76,724Z" transform="translate(-60 -59.13)"/><path class="cls-9" d="M738.76,728.54h0a1.56,1.56,0,0,1,1.1.45l7.82,7.83-.52.52-7.83-7.83a.82.82,0,0,0-.57-.24h0a.83.83,0,0,0-.58.24l-7.83,7.83-.52-.52,7.83-7.83A1.54,1.54,0,0,1,738.76,728.54Z" transform="translate(-60 -59.13)"/><path class="cls-9" d="M766.35,737.33a1.84,1.84,0,0,1-1.32-.54l-9.94-9.95.51-.51,9.95,9.94a1.13,1.13,0,0,0,1.61,0l10-9.94.51.51-9.94,9.95A1.84,1.84,0,0,1,766.35,737.33Z" transform="translate(-60 -59.13)"/><path class="cls-9" d="M766.35,732.79h0a1.55,1.55,0,0,1-1.09-.46l-7.84-7.83L758,724l7.83,7.83a.77.77,0,0,0,.57.25h0a.79.79,0,0,0,.58-.25l7.83-7.83.52.52-7.83,7.83A1.55,1.55,0,0,1,766.35,732.79Z" transform="translate(-60 -59.13)"/><path class="cls-9" d="M794,724a1.86,1.86,0,0,1,1.32.54l10,10-.52.52-9.94-10a1.15,1.15,0,0,0-1.61,0l-9.95,10-.52-.52,9.94-10A1.9,1.9,0,0,1,794,724Z" transform="translate(-60 -59.13)"/><path class="cls-9" d="M794,728.54h0A1.5,1.5,0,0,1,795,729l7.84,7.83-.52.52-7.83-7.83a.83.83,0,0,0-.58-.24h0a.84.84,0,0,0-.58.24l-7.83,7.83-.51-.52,7.82-7.83A1.58,1.58,0,0,1,794,728.54Z" transform="translate(-60 -59.13)"/><path class="cls-9" d="M821.55,737.33a1.82,1.82,0,0,1-1.32-.54l-10-9.95.52-.51,9.94,9.94a1.14,1.14,0,0,0,1.62,0l9.94-9.94.52.51-10,9.95A1.82,1.82,0,0,1,821.55,737.33Z" transform="translate(-60 -59.13)"/><path class="cls-9" d="M821.55,732.79h0a1.51,1.51,0,0,1-1.08-.46l-7.83-7.83.51-.52,7.83,7.83a.79.79,0,0,0,.57.25h0a.79.79,0,0,0,.58-.25L830,724l.51.52-7.82,7.83A1.55,1.55,0,0,1,821.55,732.79Z" transform="translate(-60 -59.13)"/><path class="cls-9" d="M849.15,724a1.88,1.88,0,0,1,1.32.54l9.95,10-.52.52-9.95-10a1.15,1.15,0,0,0-1.61,0l-10,10-.51-.52,9.94-10A1.9,1.9,0,0,1,849.15,724Z" transform="translate(-60 -59.13)"/><path class="cls-9" d="M849.15,728.54h0a1.56,1.56,0,0,1,1.1.45l7.82,7.83-.51.52-7.83-7.83a.84.84,0,0,0-.58-.24h0a.81.81,0,0,0-.58.24l-7.83,7.83-.52-.52,7.83-7.83A1.56,1.56,0,0,1,849.15,728.54Z" transform="translate(-60 -59.13)"/><path class="cls-9" d="M876.75,737.33a1.84,1.84,0,0,1-1.33-.54l-9.94-9.95.51-.51,10,9.94a1.14,1.14,0,0,0,1.62,0l9.94-9.94.52.51-9.95,9.95A1.82,1.82,0,0,1,876.75,737.33Z" transform="translate(-60 -59.13)"/><path class="cls-9" d="M876.75,732.79h0a1.55,1.55,0,0,1-1.09-.46l-7.83-7.83.51-.52,7.84,7.83a.79.79,0,0,0,.58.25h0a.81.81,0,0,0,.58-.25l7.82-7.83.52.52-7.83,7.83A1.55,1.55,0,0,1,876.75,732.79Z" transform="translate(-60 -59.13)"/><path class="cls-9" d="M904.34,724a1.88,1.88,0,0,1,1.33.54l9.94,10-.51.52-10-10a1.15,1.15,0,0,0-1.61,0l-9.94,10-.52-.52,9.93-10A1.9,1.9,0,0,1,904.34,724Z" transform="translate(-60 -59.13)"/><path class="cls-9" d="M904.34,728.54h0a1.54,1.54,0,0,1,1.09.45l7.83,7.83-.52.52-7.83-7.83a.82.82,0,0,0-.57-.24h0a.86.86,0,0,0-.58.24l-7.83,7.83-.51-.52,7.82-7.83A1.58,1.58,0,0,1,904.34,728.54Z" transform="translate(-60 -59.13)"/><path class="cls-9" d="M931.94,737.33a1.82,1.82,0,0,1-1.32-.54l-10-9.95.52-.51,9.94,9.94a1.14,1.14,0,0,0,1.62,0l9.94-9.94.52.51-9.94,9.95A1.86,1.86,0,0,1,931.94,737.33Z" transform="translate(-60 -59.13)"/><path class="cls-9" d="M931.94,732.79h0a1.51,1.51,0,0,1-1.09-.46L923,724.5l.51-.52,7.83,7.83a.79.79,0,0,0,.58.25h0a.79.79,0,0,0,.58-.25l7.83-7.83.52.52L933,732.33A1.55,1.55,0,0,1,931.94,732.79Z" transform="translate(-60 -59.13)"/><path class="cls-9" d="M959.54,724a1.86,1.86,0,0,1,1.32.54l9.95,10-.52.52-9.95-10a1.15,1.15,0,0,0-1.61,0l-10,10-.51-.52,10-10A1.86,1.86,0,0,1,959.54,724Z" transform="translate(-60 -59.13)"/><path class="cls-9" d="M959.54,728.54h0a1.54,1.54,0,0,1,1.1.45l7.82,7.83-.51.52-7.83-7.83a.84.84,0,0,0-.58-.24h0a.83.83,0,0,0-.58.24l-7.83,7.83-.52-.52,7.83-7.83A1.54,1.54,0,0,1,959.54,728.54Z" transform="translate(-60 -59.13)"/><path class="cls-9" d="M987.14,737.33a1.86,1.86,0,0,1-1.33-.54l-9.94-9.95.52-.51,9.94,9.94a1.14,1.14,0,0,0,1.62,0l9.94-9.94.52.51-9.95,9.95A1.82,1.82,0,0,1,987.14,737.33Z" transform="translate(-60 -59.13)"/><path class="cls-9" d="M987.14,732.79h0a1.55,1.55,0,0,1-1.1-.46l-7.83-7.83.52-.52,7.83,7.83a.79.79,0,0,0,.58.25h0a.79.79,0,0,0,.58-.25l7.83-7.83.52.52-7.84,7.83A1.53,1.53,0,0,1,987.14,732.79Z" transform="translate(-60 -59.13)"/><path class="cls-9" d="M1014.73,724a1.87,1.87,0,0,1,1.33.54l10,10-.52.52-10-10a1.15,1.15,0,0,0-1.61,0L1004,735l-.53-.52,9.95-10A1.9,1.9,0,0,1,1014.73,724Z" transform="translate(-60 -59.13)"/><path class="cls-9" d="M1014.73,728.54h0a1.54,1.54,0,0,1,1.09.45l7.83,7.83-.52.52-7.83-7.83a.8.8,0,0,0-.57-.24h0a.82.82,0,0,0-.57.24l-7.84,7.83-.51-.52,7.83-7.83A1.54,1.54,0,0,1,1014.73,728.54Z" transform="translate(-60 -59.13)"/><path class="cls-9" d="M1042.34,737.33a1.8,1.8,0,0,1-1.32-.54l-10-9.95.52-.51,10,9.94a1.13,1.13,0,0,0,1.61,0l9.94-9.94.52.51-9.94,9.95A1.84,1.84,0,0,1,1042.34,737.33Z" transform="translate(-60 -59.13)"/><path class="cls-9" d="M1042.34,732.79h0a1.55,1.55,0,0,1-1.09-.46l-7.83-7.83.52-.52,7.83,7.83a.77.77,0,0,0,.57.25h0a.83.83,0,0,0,.58-.25l7.83-7.83.51.52-7.82,7.83A1.59,1.59,0,0,1,1042.34,732.79Z" transform="translate(-60 -59.13)"/><path class="cls-9" d="M1069.93,724a1.9,1.9,0,0,1,1.33.54l9.94,10-.52.52-10-10a1.13,1.13,0,0,0-1.6,0l-10,10-.51-.52,9.94-10A1.88,1.88,0,0,1,1069.93,724Z" transform="translate(-60 -59.13)"/><path class="cls-9" d="M1069.93,728.54h0a1.54,1.54,0,0,1,1.09.45l7.83,7.83-.52.52-7.83-7.83a.83.83,0,0,0-.58-.24h0a.84.84,0,0,0-.58.24l-7.83,7.83-.52-.52,7.84-7.83A1.54,1.54,0,0,1,1069.93,728.54Z" transform="translate(-60 -59.13)"/><path class="cls-9" d="M1097.53,737.33a1.86,1.86,0,0,1-1.33-.54l-9.94-9.95.52-.51,10,9.94a1.13,1.13,0,0,0,1.61,0l10-9.94.51.51-9.94,9.95A1.86,1.86,0,0,1,1097.53,737.33Z" transform="translate(-60 -59.13)"/><path class="cls-9" d="M1097.53,732.79h0a1.57,1.57,0,0,1-1.1-.46l-7.83-7.83.52-.52,7.83,7.83a.81.81,0,0,0,.58.25h0a.79.79,0,0,0,.58-.25l7.83-7.83.52.52-7.84,7.83A1.51,1.51,0,0,1,1097.53,732.79Z" transform="translate(-60 -59.13)"/><path class="cls-9" d="M1125.12,724a1.88,1.88,0,0,1,1.33.54l10,10-.52.52-10-10a1.15,1.15,0,0,0-1.61,0l-10,10-.51-.52,9.94-10A1.9,1.9,0,0,1,1125.12,724Z" transform="translate(-60 -59.13)"/><path class="cls-9" d="M1125.12,728.54h0a1.52,1.52,0,0,1,1.09.45l7.83,7.83-.52.52-7.83-7.83a.8.8,0,0,0-.57-.24h0a.86.86,0,0,0-.58.24l-7.83,7.83-.51-.52L1124,729A1.54,1.54,0,0,1,1125.12,728.54Z" transform="translate(-60 -59.13)"/><path class="cls-9" d="M1152.72,737.33a1.81,1.81,0,0,1-1.31-.54l-10-9.95.51-.51,10,9.94a1.13,1.13,0,0,0,1.61,0l10-9.94.52.51-10,9.95A1.83,1.83,0,0,1,1152.72,737.33Z" transform="translate(-60 -59.13)"/><path class="cls-9" d="M1152.72,732.79h0a1.55,1.55,0,0,1-1.09-.46l-7.83-7.83.52-.52,7.83,7.83a.77.77,0,0,0,.57.25h0a.83.83,0,0,0,.59-.25l7.83-7.83.51.52-7.82,7.83A1.59,1.59,0,0,1,1152.72,732.79Z" transform="translate(-60 -59.13)"/><path class="cls-9" d="M537,642.75a22.41,22.41,0,1,1,15.83-6.56A22.26,22.26,0,0,1,537,642.75Zm0-44.25a21.83,21.83,0,1,0,15.45,6.4A21.72,21.72,0,0,0,537,598.5Zm-2,39.65-.31,0A17.69,17.69,0,0,1,524.31,633,17.9,17.9,0,0,1,521,612.37l.17-.35L535,625.92ZM521.27,613a17.33,17.33,0,0,0,13.19,24.57V626.15Zm18,25.17,15-22.77.15.61a18.08,18.08,0,0,1,.56,4.38A17.9,17.9,0,0,1,539.84,638ZM554,616.73l-13.57,20.64a17.32,17.32,0,0,0,14-17A17.45,17.45,0,0,0,554,616.73Zm-15,14.67V608H535v12.4l-11.64-11.64.35-.4c.19-.22.38-.43.58-.64a17.93,17.93,0,0,1,25.35,0,18.18,18.18,0,0,1,2.56,3.25l.09.15Zm-4.48-24h5v22.15l12.16-18.48a17.68,17.68,0,0,0-2.39-3,17.37,17.37,0,0,0-24.57,0c-.19.19-.38.4-.56.61h0L534.46,619Z" transform="translate(-60 -59.13)"/><rect class="cls-7" x="994.73" y="358.39" width="108.93" height="83.61"/><rect class="cls-7" x="615.25" y="438.74" width="265.62" height="89.62"/><polygon class="cls-15" points="1081.65 384.55 1021.92 384.55 1025.46 381.25 1024.68 380.4 1019.6 385.13 1024.68 389.85 1025.46 389.01 1021.91 385.71 1081.65 385.71 1081.65 384.55"/><polygon class="cls-15" points="1076.57 408.4 1075.78 409.25 1079.34 412.55 1019.6 412.55 1019.6 413.7 1079.33 413.7 1075.78 417 1076.57 417.85 1081.65 413.13 1076.57 408.4"/><path class="cls-54" d="M151.49,439.82h1.06V444H158v-4.17H159v9.39H158V445h-5.43v4.23h-1.06Z" transform="translate(-60 -59.13)"/><path class="cls-54" d="M163.16,444.54v0a4.79,4.79,0,1,1,9.58,0v0a4.76,4.76,0,0,1-4.81,4.86A4.71,4.71,0,0,1,163.16,444.54Zm8.48,0v0a3.73,3.73,0,0,0-3.71-3.87,3.69,3.69,0,0,0-3.68,3.85v0a3.74,3.74,0,0,0,3.71,3.88A3.69,3.69,0,0,0,171.64,444.54Z" transform="translate(-60 -59.13)"/><path class="cls-54" d="M178.69,440.79h-3.15v-1h7.38v1h-3.15v8.42h-1.08Z" transform="translate(-60 -59.13)"/><path class="cls-54" d="M186.78,439.82h6.79v1h-5.72V444H193v1h-5.12v3.29h5.79v1h-6.86Z" transform="translate(-60 -59.13)"/><path class="cls-54" d="M197.65,439.82h1.06v8.41H204v1h-6.35Z" transform="translate(-60 -59.13)"/><path class="cls-54" d="M82.39,589.7h1.18l3.35,8.1,3.35-8.1h1.14l-4,9.47h-.94Z" transform="translate(-60 -59.13)"/><path class="cls-54" d="M97.28,589.64h1l4.28,9.46h-1.14l-1.1-2.49H95.2l-1.12,2.49H93Zm2.62,6-2.14-4.78-2.15,4.78Z" transform="translate(-60 -59.13)"/><path class="cls-54" d="M106.28,589.7h1.06v8.42h5.29v1h-6.35Z" transform="translate(-60 -59.13)"/><path class="cls-54" d="M116.46,589.7h1.07v8.42h5.28v1h-6.35Z" transform="translate(-60 -59.13)"/><path class="cls-54" d="M126.65,589.7h6.79v1h-5.73v3.21h5.13v1h-5.13v3.29h5.8v1h-6.86Z" transform="translate(-60 -59.13)"/><path class="cls-54" d="M143.43,589.7h3.26a4.68,4.68,0,0,1,5,4.67v0a4.71,4.71,0,0,1-5,4.7h-3.26Zm1.06,1v7.44h2.2a3.63,3.63,0,0,0,3.89-3.69v0a3.65,3.65,0,0,0-3.89-3.72Z" transform="translate(-60 -59.13)"/><path class="cls-54" d="M155.8,589.7h6.79v1h-5.73v3.21H162v1h-5.13v3.29h5.8v1H155.8Z" transform="translate(-60 -59.13)"/><path class="cls-54" d="M172.16,594.43v0a4.71,4.71,0,0,1,4.71-4.86,5,5,0,0,1,3.5,1.25l-.68.8a4,4,0,0,0-2.86-1.07,3.67,3.67,0,0,0-3.57,3.85v0a3.62,3.62,0,0,0,3.72,3.9,4.46,4.46,0,0,0,2.71-.93V595h-2.86v-.95h3.88v3.74a5.71,5.71,0,0,1-3.77,1.44A4.61,4.61,0,0,1,172.16,594.43Z" transform="translate(-60 -59.13)"/><path class="cls-54" d="M184.82,595.17V589.7h1.07v5.4c0,2,1.08,3.17,2.86,3.17s2.84-1,2.84-3.1V589.7h1.06v5.38c0,2.74-1.57,4.17-3.92,4.17S184.82,597.82,184.82,595.17Z" transform="translate(-60 -59.13)"/><path class="cls-54" d="M200.18,589.64h1l4.28,9.46h-1.14l-1.1-2.49H198.1L197,599.1H195.9Zm2.61,6-2.13-4.78-2.15,4.78Z" transform="translate(-60 -59.13)"/><path class="cls-54" d="M209.18,589.7h3.26a4.69,4.69,0,0,1,5,4.67v0a4.72,4.72,0,0,1-5,4.7h-3.26Zm1.06,1v7.44h2.2a3.64,3.64,0,0,0,3.9-3.69v0a3.66,3.66,0,0,0-3.9-3.72Z" transform="translate(-60 -59.13)"/><path class="cls-54" d="M224.41,589.64h1l4.28,9.46h-1.14l-1.1-2.49h-5.12l-1.11,2.49h-1.09Zm2.62,6-2.13-4.78-2.15,4.78Z" transform="translate(-60 -59.13)"/><path class="cls-54" d="M233.41,589.7h1.07v8.42h5.29v1h-6.36Z" transform="translate(-60 -59.13)"/><path class="cls-54" d="M243.19,595.17V589.7h1.06v5.4c0,2,1.08,3.17,2.87,3.17s2.83-1,2.83-3.1V589.7H251v5.38c0,2.74-1.57,4.17-3.92,4.17S243.19,597.82,243.19,595.17Z" transform="translate(-60 -59.13)"/><path class="cls-54" d="M255.4,589.7h3.52c2.12,0,3.51,1.13,3.51,3v0c0,2-1.69,3.07-3.69,3.07h-2.28v3.32H255.4Zm3.38,5.12c1.55,0,2.58-.84,2.58-2.07v0c0-1.34-1-2-2.52-2h-2.38v4.14Z" transform="translate(-60 -59.13)"/><path class="cls-54" d="M266.24,589.7H273v1H267.3v3.21h5.13v1H267.3v3.29h5.8v1h-6.86Z" transform="translate(-60 -59.13)"/><path class="cls-54" d="M60.66,514.77c.09-1.7.17-3.53.23-5.47s.11-4,.14-6,0-4.17,0-6.29,0-4.23,0-6.31-.08-4.07-.14-6-.14-3.77-.23-5.47h2.86q1.18,1.88,2.57,4T69,487.43q1.52,2.22,3.13,4.52t3.3,4.64q1.68,2.32,3.38,4.64t3.39,4.55q1.65-2.22,3.35-4.55c1.13-1.54,2.26-3.09,3.37-4.64s2.23-3.1,3.32-4.64,2.15-3,3.18-4.52,2-2.91,3-4.29l2.67-4h2.7c-.15,1.7-.26,3.53-.36,5.47s-.16,4-.21,6-.07,4.18-.07,6.31,0,4.22.07,6.29.12,4.08.21,6,.21,3.77.36,5.47H98.46q.17-2,.27-4.17c.07-1.47.13-3,.17-4.55s.07-3.15.08-4.78,0-3.26,0-4.9L99,487c-1.25,1.69-2.53,3.42-3.82,5.2l-3.87,5.33c-1.28,1.79-2.55,3.56-3.79,5.32S85,506.35,83.89,508l-2.83,4.14q-4.07-6.07-8.31-12T64.14,488.4v7.14c0,1.7,0,3.41,0,5.11s0,3.37.08,5,.07,3.22.13,4.76.12,3,.2,4.36Z" transform="translate(-60 -59.13)"/><path class="cls-54" d="M142,479.18v5.88a11.07,11.07,0,0,0-2.83-1.88,15.94,15.94,0,0,0-3.13-1,21.28,21.28,0,0,0-3.3-.43c-1.12-.06-2.23-.09-3.34-.09H113.81v12.72h14.24a34.11,34.11,0,0,0,3.9-.19,13.11,13.11,0,0,0,2.84-.58,5.51,5.51,0,0,0,1.91-1.06,4.33,4.33,0,0,0,1.12-1.6v9.31a4,4,0,0,0-1.09-1.49,5.84,5.84,0,0,0-1.92-1.07A13.69,13.69,0,0,0,132,497a31.72,31.72,0,0,0-3.91-.22H113.81v15.52h12.7c2.18,0,4.17-.07,6-.2a42.14,42.14,0,0,0,4.91-.59,20.25,20.25,0,0,0,3.8-1,9,9,0,0,0,2.65-1.57l-1.41,5.88H109.21c.09-1.7.17-3.53.23-5.47s.11-4,.14-6,0-4.17,0-6.29,0-4.23,0-6.31-.08-4.07-.14-6-.14-3.77-.23-5.47Zm-9.43-10.59-6.17,7.2h-.7l2.19-7.2Z" transform="translate(-60 -59.13)"/><path class="cls-54" d="M184.24,479.16h4.23q-1.78,1.62-3.71,3.41l-3.93,3.68-4.11,3.88-4.19,4q2.81,2.73,5.67,5.46c1.92,1.83,3.81,3.63,5.69,5.39s3.72,3.47,5.52,5.12,3.52,3.21,5.17,4.68h-6.11c-1.25-1.3-2.6-2.69-4-4.14s-3-3-4.51-4.51-3.18-3.13-4.85-4.74-3.35-3.24-5-4.87l-5,4.87c-1.66,1.61-3.28,3.19-4.84,4.74s-3.09,3.05-4.54,4.51-2.83,2.84-4.12,4.14h-4.23l4.88-4.51,5.24-4.92,5.45-5.18q2.76-2.64,5.48-5.28l-4.43-4.19-4.34-4.08-4.16-3.87c-1.36-1.26-2.65-2.45-3.89-3.58h6.11q2.82,2.94,6.17,6.31t7.05,7q3.71-3.61,7.11-7C180.21,483.22,182.3,481.12,184.24,479.16Z" transform="translate(-60 -59.13)"/><path class="cls-54" d="M198.11,514.77c.14-1.7.25-3.53.33-5.47s.13-4,.16-6,.05-4.17,0-6.29,0-4.23-.09-6.31-.11-4.07-.19-6-.15-3.77-.24-5.47h5.29c-.14,1.7-.26,3.53-.35,5.47s-.17,4-.22,6-.06,4.18-.06,6.31,0,4.22.06,6.29.12,4.08.22,6,.21,3.77.35,5.47Z" transform="translate(-60 -59.13)"/><path class="cls-54" d="M231.12,477.21a30.5,30.5,0,0,1,4.91.39,25.87,25.87,0,0,1,4.51,1.14,19.09,19.09,0,0,1,3.85,1.87,12.46,12.46,0,0,1,2.94,2.56v6a16.16,16.16,0,0,0-2-2.87,17.87,17.87,0,0,0-2.56-2.36,18.79,18.79,0,0,0-3-1.86,21.42,21.42,0,0,0-3.25-1.35,22.07,22.07,0,0,0-3.44-.81,23,23,0,0,0-3.5-.28h-.26a20.72,20.72,0,0,0-4.31.5,18.57,18.57,0,0,0-4,1.4,15.75,15.75,0,0,0-3.51,2.33,14.72,14.72,0,0,0-2.79,3.27,15.85,15.85,0,0,0-1.82,4.25,21.17,21.17,0,0,0,0,10.49,16.21,16.21,0,0,0,1.84,4.25,14.16,14.16,0,0,0,2.79,3.26,16.37,16.37,0,0,0,3.52,2.32,18,18,0,0,0,4,1.38,21.6,21.6,0,0,0,4.33.49h.22a21.77,21.77,0,0,0,3.51-.28,22.21,22.21,0,0,0,3.43-.81,20.89,20.89,0,0,0,3.24-1.35,19.16,19.16,0,0,0,3-1.86,18.42,18.42,0,0,0,2.55-2.37,16.08,16.08,0,0,0,2-2.86v6a12.68,12.68,0,0,1-3,2.55,18.5,18.5,0,0,1-3.87,1.87,25.11,25.11,0,0,1-4.52,1.13,30.81,30.81,0,0,1-4.92.39,34,34,0,0,1-4.39-.29,31.22,31.22,0,0,1-4.26-.88,26,26,0,0,1-4-1.48,22.17,22.17,0,0,1-3.58-2.08,19.06,19.06,0,0,1-3-2.71,16.55,16.55,0,0,1-2.34-3.32,17,17,0,0,1-1.5-4,19.95,19.95,0,0,1,0-9.22,16.92,16.92,0,0,1,1.51-4,16.69,16.69,0,0,1,2.34-3.34,19.24,19.24,0,0,1,3-2.72,22.21,22.21,0,0,1,3.58-2.09,26.9,26.9,0,0,1,4-1.48,28.86,28.86,0,0,1,4.27-.88A32.27,32.27,0,0,1,231.12,477.21Z" transform="translate(-60 -59.13)"/><path class="cls-54" d="M294.84,496.51a23,23,0,0,1-.81,6,18.15,18.15,0,0,1-2.14,4.86,15.8,15.8,0,0,1-3.36,3.75,18.65,18.65,0,0,1-4.43,2.65,24.61,24.61,0,0,1-5.38,1.59,36.47,36.47,0,0,1-12.39,0,24.61,24.61,0,0,1-5.38-1.59,18.65,18.65,0,0,1-4.43-2.65,16,16,0,0,1-3.35-3.75,17.84,17.84,0,0,1-2.14-4.86,22.41,22.41,0,0,1,0-11.94,17.64,17.64,0,0,1,2.14-4.85,16,16,0,0,1,3.35-3.75,18.69,18.69,0,0,1,4.43-2.66,24.61,24.61,0,0,1,5.38-1.59,37.16,37.16,0,0,1,12.39,0,24.61,24.61,0,0,1,5.38,1.59,18.69,18.69,0,0,1,4.43,2.66,15.8,15.8,0,0,1,3.36,3.75,18,18,0,0,1,2.14,4.85A23,23,0,0,1,294.84,496.51Zm-4.84.05a24.63,24.63,0,0,0-1-7.43,12.64,12.64,0,0,0-3.16-5.28,13.26,13.26,0,0,0-5.43-3.17,30.09,30.09,0,0,0-15.76,0,13.26,13.26,0,0,0-5.43,3.17,12.72,12.72,0,0,0-3.15,5.28A26.81,26.81,0,0,0,256,504a12.8,12.8,0,0,0,3.15,5.3,13.36,13.36,0,0,0,5.43,3.16,29.82,29.82,0,0,0,15.76,0,13.36,13.36,0,0,0,5.43-3.16A12.71,12.71,0,0,0,289,504,24.63,24.63,0,0,0,290,496.56Z" transform="translate(-60 -59.13)"/><path class="cls-9" d="M68.86,548.85a11.52,11.52,0,0,1-2.94,1.66,13.29,13.29,0,0,1-2.78.69,10,10,0,0,0-.88,1.86,4.56,4.56,0,0,0-.32,1.57q0,1,.63,1.32a3.2,3.2,0,0,0,1.66.2,10.81,10.81,0,0,0,2.86-.77,43.79,43.79,0,0,0,6.12-2.89q3.32-1.86,6.47-3.81c1.64-1,3.18-2,4.64-3a.83.83,0,0,1,.57-.2.53.53,0,0,1,.4.2c.11.31,0,.62-.46.92l-1.54,1a16.42,16.42,0,0,0-1.55,1,17,17,0,0,1-1.54,1l-3.38,2.06c-1.15.68-2.29,1.34-3.44,2s-2.24,1.2-3.29,1.72-2,.94-2.94,1.29a12.53,12.53,0,0,1-4,.86,3.11,3.11,0,0,1-2.06-.63,2.11,2.11,0,0,1-.69-1.72,7.72,7.72,0,0,1,1-3.38A16.47,16.47,0,0,1,62.57,550a25.08,25.08,0,0,1,1.66-2.07,28,28,0,0,1,2.49-2.51,9.57,9.57,0,0,1,2.49-1.72,3,3,0,0,1,2.17-.34,1,1,0,0,1,.72,1.11,4.13,4.13,0,0,1-.84,2A10.37,10.37,0,0,1,68.86,548.85Zm-3.6-.46a12.34,12.34,0,0,0-1.21,1.44,13,13,0,0,0,2.64-.89,10.24,10.24,0,0,0,2.58-1.75,5.85,5.85,0,0,0,1.11-1.43,1.24,1.24,0,0,0,.2-.92c-.23-.23-.81-.1-1.75.38A14,14,0,0,0,65.26,548.39Z" transform="translate(-60 -59.13)"/><path class="cls-9" d="M85.4,546.1c-.53.84-1.22,1.9-2.06,3.18s-1.64,2.61-2.4,4l1.72-2.06c.49-.58,1-1.13,1.37-1.66s.8-1,1.14-1.38l.35-.4c.53-.61,1.25-1.39,2.17-2.34a31.64,31.64,0,0,1,2.83-2.64A12.74,12.74,0,0,1,93.3,541c.87-.4,1.55-.33,2,.2a2.49,2.49,0,0,1,.34,2q-.17,1.4-.51,3.06c-.15.65-.29,1.32-.44,2a10.45,10.45,0,0,0-.19,1.86,2.72,2.72,0,0,0,.29,1.32,1.07,1.07,0,0,0,1,.51,3.61,3.61,0,0,0,.8-.14c.34-.1.66-.2,1-.32a20.2,20.2,0,0,0,2.12-1c.76-.41,1.52-.85,2.28-1.31s1.51-.93,2.24-1.4l2-1.35,1-.69q.74-.45,1,.12a1.08,1.08,0,0,1-.11.43.7.7,0,0,1-.4.37l-1.55,1c-1,.65-1.9,1.28-2.83,1.89s-1.9,1.18-2.89,1.71a18.84,18.84,0,0,1-3.2,1.55,6.77,6.77,0,0,1-2.12.46,1.81,1.81,0,0,1-1.66-.72,3.33,3.33,0,0,1-.46-1.86,11.84,11.84,0,0,1,.2-2.06c.14-.72.3-1.45.49-2.17.19-.88.35-1.69.48-2.44a2.72,2.72,0,0,0-.08-1.68c-.15-.35-.51-.38-1.06-.12a9.65,9.65,0,0,0-2,1.43c-.76.69-1.59,1.51-2.48,2.46S86.79,548,85.89,549s-1.73,2-2.49,2.9-1.41,1.7-2,2.31v-.05l-1.14,1.43-.11.11c-.16.19-.34.4-.55.63L79,557a1.79,1.79,0,0,1-.65.43.6.6,0,0,1-.58-.06c-.11-.08-.06-.39.17-.94a17.1,17.1,0,0,1,1-2c.43-.78.93-1.64,1.48-2.57s1.09-1.81,1.6-2.64l1.38-2.17.77-1.23a1.1,1.1,0,0,1,.86-.52C85.59,545.3,85.71,545.57,85.4,546.1Z" transform="translate(-60 -59.13)"/><path class="cls-9" d="M152.3,520.75a11.58,11.58,0,0,1-2.26,4.18,40.33,40.33,0,0,1-4.44,4.69c-1.75,1.6-3.69,3.22-5.8,4.87s-4.24,3.2-6.36,4.68-4.15,2.88-6.12,4.16-3.67,2.35-5.12,3.23a36.09,36.09,0,0,0-2.4,4.87,9,9,0,0,0-.75,3.09,1.42,1.42,0,0,0,1.6,1.6,8.53,8.53,0,0,0,2.95-.71,31.32,31.32,0,0,0,4-2q2.24-1.29,4.87-3c1.75-1.17,3.57-2.44,5.43-3.81l1.09-.8c.5-.26.82-.29,1-.06v-.05a.38.38,0,0,1,.05.45.89.89,0,0,1-.4.46q-1.67,1.26-3.75,2.72t-4.23,2.84q-2.14,1.36-4.21,2.57a40.41,40.41,0,0,1-3.72,1.95,15.43,15.43,0,0,1-2.11.68,6.94,6.94,0,0,1-1.61.23,2.3,2.3,0,0,1-1.86-.66,2.64,2.64,0,0,1-.54-1.74,7.53,7.53,0,0,1,.31-1.95,23.1,23.1,0,0,1,.83-2.29c.35-.8.74-1.63,1.18-2.49s.88-1.69,1.34-2.49c.69-1.18,1.36-2.27,2-3.26s1.2-1.75,1.62-2.29v-.06c1.19-1.71,2.52-3.56,4-5.52s3-3.9,4.55-5.78,3.09-3.66,4.64-5.3a44.58,44.58,0,0,1,4.37-4.12,13,13,0,0,1,3.29-1.77,9.26,9.26,0,0,1,3.06-.63,4,4,0,0,1,2.75.91A2.6,2.6,0,0,1,152.3,520.75Zm-9.16-.35a33.8,33.8,0,0,0-3.37,3.09q-1.78,1.83-3.61,4t-3.63,4.47c-1.21,1.54-2.35,3.07-3.44,4.58s-2.1,2.94-3.06,4.32-1.79,2.61-2.52,3.72c1.49-.92,3.16-2,5-3.21s3.76-2.52,5.72-3.89,3.9-2.79,5.78-4.27a67,67,0,0,0,5.12-4.35,32.13,32.13,0,0,0,3.81-4.15,9.45,9.45,0,0,0,1.86-3.66,1.74,1.74,0,0,0-.49-1.89,3.2,3.2,0,0,0-2.09-.63A9,9,0,0,0,143.14,520.4Z" transform="translate(-60 -59.13)"/><path class="cls-9" d="M148.8,543.76a1.45,1.45,0,0,1-.14,1c-.17.4-.31.75-.43,1.06v-.06l-.11.34a14,14,0,0,0-1.21,4.58c0,.88.41,1.32,1.21,1.32,1.18,0,3.59-1,7.21-3v.06c1-.53,1.95-1.08,2.86-1.63s1.87-1.13,2.86-1.75a.93.93,0,0,1,.57-.14.45.45,0,0,1,.4.26.4.4,0,0,1-.08.48,1.78,1.78,0,0,1-.43.32l-3.32,2c-1.26.77-2.54,1.49-3.83,2.18a38.37,38.37,0,0,1-3.75,1.74,8.44,8.44,0,0,1-3,.72,2.17,2.17,0,0,1-1.81-.75,3.33,3.33,0,0,1-.31-2.57c.11-.42.29-1,.54-1.72s.48-1.39.71-2l-.11.11-2.57,2.72q-1.44,1.51-3,3c-1,1-2,1.93-3,2.77a18.66,18.66,0,0,1-2.69,1.95,4.5,4.5,0,0,1-1.17.43,2.2,2.2,0,0,1-1.15,0,1.24,1.24,0,0,1-.72-.75,2.49,2.49,0,0,1,.12-1.6,14.12,14.12,0,0,1,.63-1.51,15.71,15.71,0,0,1,.89-1.61c.32-.51.66-1,1-1.46l.91-1.2a32.61,32.61,0,0,1,3.9-4,29.13,29.13,0,0,1,3.52-2.6,12.2,12.2,0,0,1,3-1.4,8.1,8.1,0,0,1,2.26-.4,2.25,2.25,0,0,1,1.37.34,1,1,0,0,1,.46.86c0,.53-.4,1.11-1.2,1.71Zm-.22-1c.38-.27.51-.5.4-.69s-.41-.28-.89-.26a7.15,7.15,0,0,0-1.94.46,12.84,12.84,0,0,0-2.72,1.4,17.42,17.42,0,0,0-2.75,2.21q-1.55,1.46-3,3.09a29,29,0,0,0-2.55,3.26,9.66,9.66,0,0,0-1.37,2.72.74.74,0,0,0,.17.86.85.85,0,0,0,.91.06,10.26,10.26,0,0,0,1.95-1.38c.76-.65,1.59-1.39,2.46-2.23s1.75-1.72,2.63-2.63l2.46-2.58c.88-.95,1.64-1.75,2.29-2.41a14,14,0,0,1,1.09-1,2.91,2.91,0,0,1,.4-.11,1.13,1.13,0,0,1,.09-.4A.57.57,0,0,1,148.58,542.73Z" transform="translate(-60 -59.13)"/><path class="cls-9" d="M207.29,516.8a2.51,2.51,0,0,1,2.06.48,2.37,2.37,0,0,1,.58,1.69,6.92,6.92,0,0,1-.32,1.89c-.21.69-.46,1.38-.75,2.09s-.59,1.39-.91,2.06-.62,1.25-.89,1.75q-1.49,2.81-3.49,6.09c-1.34,2.2-2.76,4.47-4.29,6.84s-3.13,4.78-4.81,7.24-3.34,4.89-5,7.28-3.3,4.68-4.9,6.92-3.11,4.33-4.52,6.27l-2.3,3.18a1.36,1.36,0,0,1-.47.38,1.12,1.12,0,0,1-.45.14.31.31,0,0,1-.35-.26,1,1,0,0,1,.06-.54l1.22-1.64q3.26-4.51,7-9.62T192,548.68q3.6-5.26,6.87-10.42t5.78-9.73c.27-.46.61-1.08,1-1.86s.83-1.61,1.23-2.49.74-1.74,1-2.58a7.07,7.07,0,0,0,.43-2.17c0-.92-.5-1.36-1.49-1.32a.74.74,0,0,1-.52-.17c-.11-.11-.11-.29,0-.52a1.19,1.19,0,0,1,.38-.4,1.4,1.4,0,0,1,.49-.22ZM200,543.07a1.07,1.07,0,0,0-.41.63,1.23,1.23,0,0,0,.09.68,2,2,0,0,0,.4.61,2.3,2.3,0,0,0,.48.37,4.5,4.5,0,0,0,1.3.43,10,10,0,0,0,1.74.14,16,16,0,0,0,2.38-.2,21.33,21.33,0,0,0,2.6-.57c.87-.25,1.75-.52,2.63-.83s1.7-.63,2.46-1a46.87,46.87,0,0,0,9.16-5.84,51.19,51.19,0,0,0,7.49-7.44,37.07,37.07,0,0,0,5-8,18.11,18.11,0,0,0,1.83-7.41,8.77,8.77,0,0,0-1.46-4.95,9,9,0,0,0-4.26-3.35,18.24,18.24,0,0,0-6.24-1,32.31,32.31,0,0,0-10.16,1.8A61.78,61.78,0,0,0,204.17,512,81.36,81.36,0,0,0,184.34,528c-1,1.1-1.86,2.22-2.71,3.35a34.47,34.47,0,0,0-2.27,3.32,19.55,19.55,0,0,0-1.54,3.17,8.5,8.5,0,0,0-.58,2.92,4.57,4.57,0,0,0,1.38,3.38c.23.23.15.54-.23.92a.84.84,0,0,1-1.15.05,5.06,5.06,0,0,1-1.48-3.83,9.59,9.59,0,0,1,.51-3,19.14,19.14,0,0,1,1.43-3.23,33.21,33.21,0,0,1,2.15-3.38q1.23-1.71,2.66-3.44a77.05,77.05,0,0,1,9.64-9.33,83.7,83.7,0,0,1,11.22-7.73A65.22,65.22,0,0,1,215,505.92,34,34,0,0,1,225.77,504a17,17,0,0,1,8.07,1.78,8.3,8.3,0,0,1,3.67,3.52,10.59,10.59,0,0,1,1.14,5,18.64,18.64,0,0,1-1.75,7.44,39.63,39.63,0,0,1-4.77,8,49.87,49.87,0,0,1-7.22,7.61,51.85,51.85,0,0,1-9,6.24,38.21,38.21,0,0,1-6.55,2.66,21.53,21.53,0,0,1-6.26,1.06,9.56,9.56,0,0,1-2.93-.4,4.3,4.3,0,0,1-1.43-1,2.08,2.08,0,0,1-.68-1.57,2.85,2.85,0,0,1,1.37-2.18c.53-.26.86-.24,1,.06A.77.77,0,0,1,200,543.07Z" transform="translate(-60 -59.13)"/><path class="cls-9" d="M230.52,546.05a50,50,0,0,0-2.51,4.89,9.5,9.5,0,0,0-1,3.64c0,1.06.5,1.6,1.49,1.6a9.25,9.25,0,0,0,3.46-1,50,50,0,0,0,5.81-3.32q2.18-1.5,4.3-3l4.23-3.06a.64.64,0,0,1,.48-.26.54.54,0,0,1,.49.2c.07.08.07.21,0,.4a1,1,0,0,1-.35.46c-1.06.8-2.36,1.75-3.88,2.84s-3.1,2.15-4.7,3.2-3.17,2-4.72,2.86a21.44,21.44,0,0,1-4,1.81,6.84,6.84,0,0,1-1.72.23,2.22,2.22,0,0,1-1.83-.66,2.68,2.68,0,0,1-.52-1.69,7.19,7.19,0,0,1,.41-2.21,25.85,25.85,0,0,1,1-2.52q.57-1.27,1.2-2.49c.42-.8.8-1.48,1.15-2a1.23,1.23,0,0,1,.34-.35,1.31,1.31,0,0,1,.51-.23.47.47,0,0,1,.52.09Q230.81,545.59,230.52,546.05Zm3.89-11c-.64.12-.84-.09-.57-.63v.06a.8.8,0,0,1,.32-.43,2.26,2.26,0,0,1,.54-.32c.84-.15,1.27,0,1.29.49a3.52,3.52,0,0,1-.55,1.75,20.28,20.28,0,0,1-1.37,2.11c-.53.73-.94,1.26-1.2,1.6a1.32,1.32,0,0,1-.46.38,1.16,1.16,0,0,1-.46.14.44.44,0,0,1-.45-.26c-.08-.17,0-.37.22-.6v.06c.08-.12.3-.41.66-.89s.72-1,1.09-1.51.66-1,.89-1.41S234.6,535,234.41,535Z" transform="translate(-60 -59.13)"/><path class="cls-9" d="M248.84,548.85a11.91,11.91,0,0,1-3,1.66,13.14,13.14,0,0,1-2.78.69,10.67,10.67,0,0,0-.88,1.86,4.81,4.81,0,0,0-.32,1.57c0,.69.21,1.13.64,1.32a3.16,3.16,0,0,0,1.65.2,10.81,10.81,0,0,0,2.86-.77,43.27,43.27,0,0,0,6.12-2.89c2.22-1.24,4.37-2.51,6.47-3.81q2.46-1.54,4.64-3a.83.83,0,0,1,.57-.2.53.53,0,0,1,.4.2c.11.31,0,.62-.46.92l-1.54,1c-.53.31-1.05.64-1.55,1a14.72,14.72,0,0,1-1.55,1l-3.37,2.06c-1.15.68-2.29,1.34-3.44,2s-2.23,1.2-3.29,1.72-2,.94-2.94,1.29a12.53,12.53,0,0,1-4,.86,3.11,3.11,0,0,1-2.06-.63,2.11,2.11,0,0,1-.69-1.72,7.86,7.86,0,0,1,1-3.38,16.77,16.77,0,0,1,1.16-1.77,24.9,24.9,0,0,1,1.65-2.07,28,28,0,0,1,2.49-2.51,9.73,9.73,0,0,1,2.49-1.72,3,3,0,0,1,2.17-.34,1,1,0,0,1,.72,1.11,4.1,4.1,0,0,1-.83,2A10.37,10.37,0,0,1,248.84,548.85Zm-3.61-.46a12,12,0,0,0-1.2,1.44,13,13,0,0,0,2.63-.89,9.9,9.9,0,0,0,2.58-1.75,6.19,6.19,0,0,0,1.12-1.43,1.32,1.32,0,0,0,.19-.92c-.22-.23-.81-.1-1.74.38A13.81,13.81,0,0,0,245.23,548.39Z" transform="translate(-60 -59.13)"/><path class="cls-9" d="M295,520.75a11.28,11.28,0,0,1-2.26,4.18,38.56,38.56,0,0,1-4.43,4.69q-2.62,2.4-5.81,4.87c-2.11,1.63-4.23,3.2-6.35,4.68s-4.16,2.88-6.12,4.16-3.67,2.35-5.12,3.23a37.61,37.61,0,0,0-2.41,4.87,9.39,9.39,0,0,0-.74,3.09,1.41,1.41,0,0,0,1.6,1.6,8.58,8.58,0,0,0,2.95-.71,32,32,0,0,0,4-2q2.23-1.29,4.87-3c1.75-1.17,3.57-2.44,5.43-3.81l1.09-.8c.5-.26.82-.29,1-.06v-.05a.37.37,0,0,1,.06.45.94.94,0,0,1-.4.46q-1.67,1.26-3.75,2.72t-4.24,2.84c-1.42.91-2.83,1.77-4.2,2.57a40.41,40.41,0,0,1-3.72,1.95,14.7,14.7,0,0,1-2.12.68,6.79,6.79,0,0,1-1.6.23,2.25,2.25,0,0,1-1.85-.66,2.6,2.6,0,0,1-.56-1.74,7.58,7.58,0,0,1,.32-1.95,23.1,23.1,0,0,1,.83-2.29c.35-.8.74-1.63,1.18-2.49s.88-1.69,1.34-2.49c.69-1.18,1.36-2.27,2-3.26s1.21-1.75,1.63-2.29v-.06c1.19-1.71,2.52-3.56,4-5.52s3-3.9,4.54-5.78,3.1-3.66,4.64-5.3a45.75,45.75,0,0,1,4.38-4.12,12.79,12.79,0,0,1,3.29-1.77,9.22,9.22,0,0,1,3.07-.63,4,4,0,0,1,2.74.91A2.59,2.59,0,0,1,295,520.75Zm-9.15-.35a33.83,33.83,0,0,0-3.38,3.09q-1.77,1.83-3.6,4t-3.63,4.47c-1.21,1.54-2.35,3.07-3.44,4.58s-2.1,2.94-3.06,4.32-1.79,2.61-2.52,3.72c1.49-.92,3.16-2,5-3.21s3.76-2.52,5.72-3.89,3.89-2.79,5.78-4.27,3.6-2.91,5.13-4.35a32.73,32.73,0,0,0,3.8-4.15,9.45,9.45,0,0,0,1.86-3.66,1.74,1.74,0,0,0-.49-1.89,3.2,3.2,0,0,0-2.09-.63A9,9,0,0,0,285.86,520.4Z" transform="translate(-60 -59.13)"/><path class="cls-9" d="M280.23,554.91h0a2.63,2.63,0,1,1,5.26,0v0a2.63,2.63,0,1,1-5.26,0Zm4.83,0v0a2.18,2.18,0,0,0-2.2-2.21,2.21,2.21,0,0,0-2.2,2.23h0a2.19,2.19,0,0,0,2.2,2.22A2.21,2.21,0,0,0,285.06,554.9Zm-3.23-1.4H283c.59,0,1,.29,1,.85a.82.82,0,0,1-.62.82l.71,1h-.61l-.65-.92h-.56v.92h-.51Zm1.17,1.34c.35,0,.55-.18.55-.44s-.2-.44-.55-.44h-.66v.88Z" transform="translate(-60 -59.13)"/><path class="cls-9" d="M367.82,506.31c.08-1.35.14-2.78.18-4.32s.09-3.11.12-4.75,0-3.28,0-5,0-3.33,0-5-.07-3.21-.12-4.75-.1-3-.18-4.31h2.25c.63,1,1.31,2,2,3.12s1.49,2.21,2.29,3.38,1.62,2.35,2.48,3.56,1.71,2.43,2.59,3.66,1.77,2.44,2.67,3.66,1.78,2.41,2.66,3.58q1.32-1.75,2.65-3.58l2.65-3.66c.88-1.23,1.76-2.44,2.62-3.66s1.7-2.4,2.51-3.56l2.33-3.38,2.1-3.12h2.13c-.11,1.34-.2,2.78-.28,4.31s-.13,3.12-.17,4.75-.05,3.29-.05,5,0,3.33.05,5,.1,3.22.17,4.75.17,3,.28,4.32h-4.17c.09-1,.16-2.13.22-3.29s.1-2.35.13-3.59.06-2.48.06-3.77,0-2.56,0-3.85v-7.35c-1,1.32-2,2.69-3,4.09s-2,2.8-3,4.2-2,2.81-3,4.19-1.92,2.73-2.83,4l-2.23,3.26q-3.21-4.78-6.55-9.45t-6.79-9.26v5.62c0,1.34,0,2.68,0,4s0,2.65.06,3.94.07,2.54.11,3.74.09,2.36.15,3.45Z" transform="translate(-60 -59.13)"/><path class="cls-9" d="M378.76,469.34h1.93c0,.39-.06.81-.08,1.24s-.05.88-.07,1.34,0,.92-.05,1.4,0,1,0,1.46h8.42l0-1.46c0-.48,0-.94,0-1.4s0-.91-.05-1.34,0-.85-.06-1.24h1.93c-.05.62-.09,1.29-.13,2s-.06,1.45-.07,2.2,0,1.53,0,2.31,0,1.54,0,2.3,0,1.49.07,2.2.08,1.38.13,2h-1.93c0-.47.07-1,.1-1.51s0-1.08.06-1.65,0-1.14,0-1.73v-1.78h-8.44c0,.6,0,1.19,0,1.78s0,1.17,0,1.73,0,1.12.07,1.65.06,1,.1,1.51h-1.93c.05-.62.09-1.29.12-2s.05-1.44.06-2.2,0-1.53,0-2.3,0-1.55,0-2.31,0-1.49-.06-2.2S378.79,470,378.76,469.34Z" transform="translate(-60 -59.13)"/><path class="cls-9" d="M387.06,508.58a4.37,4.37,0,0,1,1.36.2,3.44,3.44,0,0,1,1.84,1.34,4,4,0,0,1,.46,1,4.17,4.17,0,0,1,.16,1.05,3.77,3.77,0,0,1-.15,1.06,3.5,3.5,0,0,1-.45,1,3.2,3.2,0,0,1-.76.8,4.29,4.29,0,0,1-1.07.54,4.57,4.57,0,0,1-1.39.2h-6.49c0,.53,0,1.06,0,1.58s0,1,0,1.53,0,1,.05,1.46,0,.91.06,1.34h-1.83c0-.43,0-.87.06-1.34s0-1,0-1.45,0-1,0-1.54,0-1,0-1.57v-1.89c0-.63,0-1.25,0-1.85s0-1.2-.05-1.77,0-1.1-.07-1.61Zm0,6.2a2.37,2.37,0,0,0,.83-.14,2.17,2.17,0,0,0,.65-.41,2.44,2.44,0,0,0,.47-.59,3.56,3.56,0,0,0,.28-.73,3.42,3.42,0,0,0,0-1.56,2.69,2.69,0,0,0-.28-.73,2.4,2.4,0,0,0-.46-.59,2.2,2.2,0,0,0-.66-.4,2.17,2.17,0,0,0-.84-.15h-6.45v5.31Z" transform="translate(-60 -59.13)"/><path class="cls-9" d="M384.71,537.14c-14.31,0-25.95-19.16-25.95-42.72s11.64-42.71,25.95-42.71,26,19.16,26,42.71S399,537.14,384.71,537.14Zm0-84.27c-13.66,0-24.78,18.64-24.78,41.55S371.05,536,384.71,536s24.78-18.64,24.78-41.55S398.38,452.87,384.71,452.87Z" transform="translate(-60 -59.13)"/><path class="cls-9" d="M384.71,541.22c-16.56,0-30-21-30-46.8s13.47-46.79,30-46.79,30,21,30,46.79S401.27,541.22,384.71,541.22Zm0-92.43c-15.91,0-28.86,20.47-28.86,45.63s12.95,45.64,28.86,45.64,28.87-20.47,28.87-45.64S400.63,448.79,384.71,448.79Z" transform="translate(-60 -59.13)"/><path class="cls-9" d="M409.34,537.52v0a3.7,3.7,0,1,1,7.39,0v0a3.72,3.72,0,0,1-3.7,3.72A3.68,3.68,0,0,1,409.34,537.52Zm6.78,0v0a3.09,3.09,0,1,0-6.17,0v0a3.06,3.06,0,0,0,3.08,3.11A3.09,3.09,0,0,0,416.12,537.5Zm-4.53-2h1.7c.82,0,1.44.4,1.44,1.19a1.13,1.13,0,0,1-.87,1.15l1,1.42H414l-.9-1.3h-.78v1.3h-.72Zm1.64,1.87c.48,0,.76-.25.76-.62s-.28-.61-.76-.61h-.92v1.23Z" transform="translate(-60 -59.13)"/><path class="cls-9" d="M189.66,698.44H165.19a7.36,7.36,0,0,0-7.36,7.35v23.62a7.37,7.37,0,0,0,7.36,7.36h24.47a7.37,7.37,0,0,0,7.36-7.36V705.79A7.36,7.36,0,0,0,189.66,698.44Zm-7.08,11.62a.28.28,0,0,1-.29.28h-2.21a1,1,0,0,0-1,1v2.33h3.16a.28.28,0,0,1,.28.3l-.28,3.29a.28.28,0,0,1-.28.26h-2.88v10.92a.28.28,0,0,1-.28.28h-4a.27.27,0,0,1-.28-.28V717.51h-2a.28.28,0,0,1-.28-.28v-3.29a.29.29,0,0,1,.28-.28h2V710.5a4,4,0,0,1,4-4h3.75a.29.29,0,0,1,.29.28Z" transform="translate(-60 -59.13)"/><path class="cls-9" d="M238.52,698.44H214.05a7.36,7.36,0,0,0-7.37,7.35v23.62a7.37,7.37,0,0,0,7.37,7.36h24.47a7.37,7.37,0,0,0,7.36-7.36V705.79A7.36,7.36,0,0,0,238.52,698.44Zm-1.63,23.32a6.47,6.47,0,0,1-6.47,6.47h-8.28a6.47,6.47,0,0,1-6.47-6.47v-8.3a6.48,6.48,0,0,1,6.47-6.49h8.28a6.48,6.48,0,0,1,6.47,6.49Z" transform="translate(-60 -59.13)"/><path class="cls-9" d="M226.32,714.64a3.11,3.11,0,1,0,3.1,3.1A3.1,3.1,0,0,0,226.32,714.64Z" transform="translate(-60 -59.13)"/><path class="cls-9" d="M230.55,709.08H222a4.26,4.26,0,0,0-4.25,4.25v8.55a4.26,4.26,0,0,0,4.25,4.25h8.53a4.25,4.25,0,0,0,4.24-4.25v-8.55A4.25,4.25,0,0,0,230.55,709.08Zm-4.23,13.62a5,5,0,1,1,4.94-5A5,5,0,0,1,226.32,722.7Zm5.35-9a1.33,1.33,0,1,1,1.32-1.33A1.32,1.32,0,0,1,231.67,713.67Z" transform="translate(-60 -59.13)"/><path class="cls-9" d="M92,698.44H67.48a7.36,7.36,0,0,0-7.36,7.35v23.62a7.37,7.37,0,0,0,7.36,7.36H92a7.37,7.37,0,0,0,7.37-7.36V705.79A7.36,7.36,0,0,0,92,698.44ZM71,722a3.17,3.17,0,0,1-.24-1,8.48,8.48,0,0,1,.42-3.85.83.83,0,0,1,.74-.42c.19,0,.36.06,4.18,1.64l1.11.45a1,1,0,0,1,.62,1,.94.94,0,0,1-.68.92l-1.59.51a27.35,27.35,0,0,1-3.85,1.17A.85.85,0,0,1,71,722Zm8.8,2.86a25.53,25.53,0,0,1-.08,4,.82.82,0,0,1-.67.52,8.35,8.35,0,0,1-4.55-1.67.89.89,0,0,1-.21-.48.65.65,0,0,1,0-.34c.06-.19.17-.34,2.85-3.48l.78-.92a1,1,0,0,1,1.18-.27,1,1,0,0,1,.67.94Zm-.64-7.8c-.19.06-.78.24-1.51-.93l-2-3.11c-1.23-1.93-2.91-4.56-3-4.8a.89.89,0,0,1,.25-.82c.73-.75,4.67-1.85,5.7-1.6a.85.85,0,0,1,.65.6c.06.33.54,7.45.61,9.05C79.91,716.82,79.33,717,79.14,717.06Zm2.48.38,1-1.34A25.25,25.25,0,0,1,85,712.89a.85.85,0,0,1,.86,0,8.4,8.4,0,0,1,2.7,4v0a.85.85,0,0,1-.35.79c-.16.11-.31.16-4.35,1.14-.65.15-1,.24-1.2.31l0,0a1,1,0,0,1-1.1-.49A.94.94,0,0,1,81.62,717.44Zm4.11,10.16a.83.83,0,0,1-.84-.09,30.73,30.73,0,0,1-2.42-3.79l-.63-1a1,1,0,0,1,.11-1.22,1,1,0,0,1,1.09-.35l1.58.53A26.1,26.1,0,0,1,88.44,723a.82.82,0,0,1,.28.8A8.19,8.19,0,0,1,85.73,727.6Z" transform="translate(-60 -59.13)"/><path class="cls-9" d="M122.26,714.61a4.28,4.28,0,1,0,4.27,4.27A4.28,4.28,0,0,0,122.26,714.61Zm0,6.51a2.24,2.24,0,1,1,0-4.48h0a2.24,2.24,0,0,1,0,4.48Z" transform="translate(-60 -59.13)"/><path class="cls-9" d="M134.89,714.61a4.28,4.28,0,1,0,4.27,4.27A4.28,4.28,0,0,0,134.89,714.61Zm0,6.51a2.24,2.24,0,1,1,0-4.48h0a2.24,2.24,0,0,1,0,4.48Z" transform="translate(-60 -59.13)"/><path class="cls-9" d="M140.81,698.44H116.34a7.36,7.36,0,0,0-7.37,7.35v23.62a7.37,7.37,0,0,0,7.37,7.36h24.47a7.37,7.37,0,0,0,7.36-7.36V705.79A7.36,7.36,0,0,0,140.81,698.44Zm.39,20.44a6.32,6.32,0,0,1-10.61,4.64l-2,2.2-2-2.21h0a6.32,6.32,0,1,1-8.54-9.31L115.93,712h4.6a14.29,14.29,0,0,1,16.1,0h4.58l-2.07,2.24A6.29,6.29,0,0,1,141.2,718.88Z" transform="translate(-60 -59.13)"/><path class="cls-9" d="M133.31,712.5a12.36,12.36,0,0,0-9.48,0,7,7,0,0,1,4.74,6.26A7,7,0,0,1,133.31,712.5Z" transform="translate(-60 -59.13)"/><path class="cls-55" d="M739.53,560a1.65,1.65,0,0,1-.93-.66,2.07,2.07,0,0,1-.26-1,5,5,0,0,1,.27-1.53c.19-.57.39-1.1.6-1.6.38-.85.87-1.81,1.46-2.88s1.24-2.19,1.94-3.36,1.44-2.36,2.21-3.57,1.51-2.38,2.24-3.52,1.29-2,1.9-2.91,1.16-1.83,1.67-2.68c.17-.29.4-.66.69-1.12s.59-1,.9-1.49.62-1.11.94-1.71.61-1.18.86-1.76a14.24,14.24,0,0,0,.61-1.62,4.89,4.89,0,0,0,.23-1.34.93.93,0,0,0-.55-1,3.65,3.65,0,0,0-2.31.42,16,16,0,0,0-2.87,1.84,41.43,41.43,0,0,0-3.26,2.88q-1.71,1.67-3.46,3.6t-3.46,4q-1.71,2.05-3.28,4c-1,1.31-2,2.56-2.91,3.72s-1.68,2.2-2.33,3.09l-1.51,2a2.85,2.85,0,0,1-1,1c-.26.07-.34-.19-.26-.79,0-.27.08-.57.14-.91s.14-.69.23-1.06.2-.92.31-1.43.2-1,.29-1.54.16-1,.21-1.47a10.51,10.51,0,0,0,.09-1.29,3.59,3.59,0,0,0-.13-1.07.91.91,0,0,0-.42-.59,2.84,2.84,0,0,0-2,.62,19.82,19.82,0,0,0-2.69,2.18c-1,.92-2,2-3.07,3.14s-2.11,2.36-3.12,3.54-1.94,2.3-2.79,3.36-1.57,1.94-2.11,2.64l-.81,1v0l-.2.24c.21,0,.25.17.12.4a.57.57,0,0,1-.47.26,1.11,1.11,0,0,1-.4-.17.86.86,0,0,1-.16-.29.53.53,0,0,0,0-.15,3.63,3.63,0,0,1,.37-1.4,21.74,21.74,0,0,1,1-2.14c.45-.81,1-1.68,1.54-2.61s1.17-1.88,1.77-2.82,1.18-1.83,1.77-2.69,1.09-1.63,1.53-2.3l1-1.54c.49-.71,1-1.51,1.61-2.38s1.18-1.76,1.77-2.66,1.15-1.81,1.68-2.7,1-1.71,1.41-2.46q.2-.37.42-.87c.14-.33.28-.67.4-1a9.16,9.16,0,0,0,.31-1,4.67,4.67,0,0,0,.11-.92,1.55,1.55,0,0,0-.21-.85.87.87,0,0,0-.77-.34,3,3,0,0,0-1,.21,9.33,9.33,0,0,0-2.11,1.07,18,18,0,0,0-2.17,1.71c-.73.66-1.44,1.36-2.13,2.12s-1.34,1.5-1.93,2.26-1.12,1.47-1.59,2.14a15.87,15.87,0,0,0-1.12,1.8,13.76,13.76,0,0,0-.69,1.47,3.47,3.47,0,0,0-.29,1.31,1.42,1.42,0,0,0,.17.72,1.31,1.31,0,0,0,.58.53h0a.18.18,0,0,1,.13.21.57.57,0,0,1-.16.33.38.38,0,0,1-.46.06,1.67,1.67,0,0,1-1-1.62,3.92,3.92,0,0,1,.22-1.2,10.05,10.05,0,0,1,.57-1.35,23.14,23.14,0,0,1,1.69-2.75,36.82,36.82,0,0,1,2.36-3,39.19,39.19,0,0,1,2.76-2.86,26,26,0,0,1,2.84-2.34,16.43,16.43,0,0,1,1.88-1,4.11,4.11,0,0,1,1.71-.45,1.44,1.44,0,0,1,1.22.64,2.78,2.78,0,0,1,.2.48,1.87,1.87,0,0,1,.09.59,6.42,6.42,0,0,1-.55,2.3,25.53,25.53,0,0,1-1.37,2.79c-.54,1-1.1,1.89-1.69,2.8s-1.11,1.71-1.55,2.37-1,1.6-1.61,2.43-1.13,1.65-1.67,2.46c-1.16,1.7-2.29,3.4-3.39,5.08s-2.13,3.33-3.1,5c-.11.17-.26.42-.43.74s-.36.66-.54,1-.36.73-.52,1.09a3.8,3.8,0,0,0-.33.94l.61-.78c.59-.77,1.28-1.65,2.05-2.61s1.59-2,2.44-3,1.72-2,2.6-3,1.77-2,2.64-2.86,1.71-1.67,2.51-2.36a13.63,13.63,0,0,1,2.19-1.58,3.92,3.92,0,0,1,1.79-.58,1.1,1.1,0,0,1,1.12.65,3.88,3.88,0,0,1,.27,1.49c0,.31,0,.61,0,.89s0,.53-.09.77l-.55,2.87-.58,3,.29-.38,1.53-2.06c.68-.88,1.35-1.77,2-2.65s1.34-1.76,2-2.65l1.57-2c.65-.84,1.4-1.76,2.24-2.77s1.75-2.06,2.71-3.17,2-2.2,3-3.26,2-2.07,3.08-3a26.64,26.64,0,0,1,3-2.39,12.26,12.26,0,0,1,2.71-1.45,3.54,3.54,0,0,1,2.23-.18,1.27,1.27,0,0,1,.87,1.39,6.62,6.62,0,0,1-.56,2.35c-.38.93-.83,1.88-1.35,2.86s-1.05,1.9-1.6,2.78-1,1.58-1.3,2.1c-.48.81-1,1.65-1.58,2.52s-1.13,1.74-1.69,2.61l-1.95,3c-.65,1-1.29,2-1.91,3.06s-1.2,2-1.75,3-1,1.93-1.49,2.84c-.16.31-.32.64-.48,1s-.31.7-.44,1.05-.23.68-.32,1a3.9,3.9,0,0,0-.13.9,1.55,1.55,0,0,0,.21.83,1.14,1.14,0,0,0,.69.48c.21.07.23.22.06.43a.56.56,0,0,1-.46.23Z" transform="translate(-60 -59.13)"/><path class="cls-55" d="M752.54,548.17a6.52,6.52,0,0,1-1.49.84,6.28,6.28,0,0,1-1.41.34,6.19,6.19,0,0,0-.45.95,2.57,2.57,0,0,0-.16.79.66.66,0,0,0,.32.67,1.58,1.58,0,0,0,.84.1,5.55,5.55,0,0,0,1.45-.39,22.73,22.73,0,0,0,3.1-1.46c1.12-.63,2.21-1.27,3.28-1.93.83-.52,1.61-1,2.34-1.51a.44.44,0,0,1,.29-.1.26.26,0,0,1,.21.1c.06.16,0,.31-.24.47l-.78.49a6.52,6.52,0,0,0-.78.51,7.94,7.94,0,0,1-.78.5l-1.71,1.05c-.58.34-1.16.68-1.74,1s-1.14.61-1.67.87-1,.47-1.49.65a6.26,6.26,0,0,1-2,.43,1.52,1.52,0,0,1-1-.32,1.07,1.07,0,0,1-.35-.87,3.92,3.92,0,0,1,.52-1.71,8.67,8.67,0,0,1,.58-.89,12.87,12.87,0,0,1,.84-1,15.09,15.09,0,0,1,1.26-1.27,5.12,5.12,0,0,1,1.26-.87,1.55,1.55,0,0,1,1.1-.18.54.54,0,0,1,.37.57,2,2,0,0,1-.42,1A5.37,5.37,0,0,1,752.54,548.17Zm-1.83-.23a6.33,6.33,0,0,0-.61.72,7,7,0,0,0,1.34-.45,5.15,5.15,0,0,0,1.3-.88,3.18,3.18,0,0,0,.57-.73.64.64,0,0,0,.1-.46c-.12-.12-.41-.06-.89.19A7.08,7.08,0,0,0,750.71,547.94Zm4.15-8.82a1.39,1.39,0,0,1,.27-.18.93.93,0,0,1,.34-.12c.09,0,.15,0,.17.09s0,.19-.2.36l-.38.39c-.15.17-.3.33-.43.49a4.74,4.74,0,0,0-.32.42q-.12.18-.06.18c.27.06.3.22.09.49a.87.87,0,0,1-.47.23c-.27,0-.4,0-.4-.18a1.36,1.36,0,0,1,.21-.63,7.49,7.49,0,0,1,.56-.81A8.6,8.6,0,0,1,754.86,539.12Z" transform="translate(-60 -59.13)"/><path class="cls-55" d="M766.88,544.19c0,.18-.2.44-.55.77a15.41,15.41,0,0,1-1.26,1.11c-.49.39-1,.78-1.5,1.15l-1.27.92-.37.29-1.28,1a1.85,1.85,0,0,0,.5,1.07,1.73,1.73,0,0,0,1.27.4,5.35,5.35,0,0,0,.74-.06,5,5,0,0,0,.88-.2,17.46,17.46,0,0,0,3.71-1.68,37.48,37.48,0,0,0,3.54-2.35h0c.16-.15.3-.19.44-.12s.14.35,0,.47c-.63.46-1.31.94-2,1.43s-1.46,1-2.22,1.38a17.3,17.3,0,0,1-2.26,1.09,11,11,0,0,1-2.11.62,4.43,4.43,0,0,1-.9.09,2.35,2.35,0,0,1-1.55-.45,1.94,1.94,0,0,1-.68-1.18l-1.41,1.15a6,6,0,0,0-.91.88c.08.08.07.19,0,.32h0a.54.54,0,0,1-.19.21.67.67,0,0,1-.33.08l-.15-.07a.8.8,0,0,1-.23-.28c0-.07,0-.2.17-.39a8.5,8.5,0,0,1,.67-.66c.29-.26.63-.55,1-.87l1.29-1A5.43,5.43,0,0,1,760,548a8.9,8.9,0,0,1,.34-1.35.54.54,0,0,1,.38-.35c.27,0,.38.11.32.32a9.6,9.6,0,0,0-.41,2.12l.77-.6.8-.59,1.41-1c.45-.34.85-.65,1.21-.94s.66-.55.9-.77a2.15,2.15,0,0,0,.45-.51v0a.52.52,0,0,1,.2-.29.59.59,0,0,1,.38,0A.17.17,0,0,1,766.88,544.19Z" transform="translate(-60 -59.13)"/><path class="cls-55" d="M771.87,546.75a27.11,27.11,0,0,0-1.28,2.48,4.72,4.72,0,0,0-.49,1.83c0,.54.25.82.75.82a4.75,4.75,0,0,0,1.76-.53,23,23,0,0,0,2.94-1.68c.73-.5,1.46-1,2.17-1.52l2.15-1.55a.36.36,0,0,1,.24-.13.28.28,0,0,1,.25.1s0,.11,0,.21a.66.66,0,0,1-.17.23l-2,1.43c-.78.55-1.57,1.09-2.38,1.63s-1.61,1-2.39,1.44a10.71,10.71,0,0,1-2,.92,3.7,3.7,0,0,1-.87.11,1.11,1.11,0,0,1-.93-.33,1.32,1.32,0,0,1-.26-.86,3.73,3.73,0,0,1,.2-1.11c.14-.42.3-.84.49-1.28s.4-.85.61-1.26.41-.75.58-1a.76.76,0,0,1,.18-.18.68.68,0,0,1,.26-.11.23.23,0,0,1,.26,0C772,546.48,772,546.59,771.87,546.75Zm2-5.6c-.33.06-.42,0-.29-.32v0a.38.38,0,0,1,.16-.21,1.28,1.28,0,0,1,.27-.16q.64-.12.66.24a1.81,1.81,0,0,1-.28.89,10.59,10.59,0,0,1-.69,1.07c-.27.37-.48.64-.61.81a.71.71,0,0,1-.23.19.56.56,0,0,1-.24.07.23.23,0,0,1-.23-.13c0-.08,0-.19.12-.3v0l.33-.44c.18-.24.37-.5.55-.77a7.77,7.77,0,0,0,.45-.71C773.93,541.22,773.94,541.14,773.84,541.15Z" transform="translate(-60 -59.13)"/><path class="cls-55" d="M781.81,546.57c.19-.23.25-.38.17-.46s-.38-.09-.69.07a5.59,5.59,0,0,0-1,.74,11.5,11.5,0,0,0-1.11,1.17,9.47,9.47,0,0,0-.94,1.35c-.12.21-.24.46-.37.73a2.68,2.68,0,0,0-.22.79,1,1,0,0,0,.17.66.83.83,0,0,0,.71.26,3.53,3.53,0,0,0,.73-.09,6.27,6.27,0,0,0,1-.32,20,20,0,0,0,2.12-1c.75-.38,1.52-.8,2.29-1.26s1.53-.91,2.27-1.37,1.43-.9,2.05-1.31a.41.41,0,0,1,.29-.1.34.34,0,0,1,.2.07.45.45,0,0,1-.23.5l-1.9,1.21c-.67.43-1.34.84-2,1.25s-1.34.79-2,1.14-1.24.67-1.78.92a12.08,12.08,0,0,1-1.93.75,5.54,5.54,0,0,1-1.4.23,1.26,1.26,0,0,1-1.06-.36,1.25,1.25,0,0,1-.23-.88,3.86,3.86,0,0,1,.27-1.09,8,8,0,0,1,.47-1,11.21,11.21,0,0,1,1.34-1.78,10.5,10.5,0,0,1,1.73-1.55,3,3,0,0,1,1.17-.48.81.81,0,0,1,.77.19.59.59,0,0,1,.09.53,2,2,0,0,1-.5.77.42.42,0,0,1-.52.12v0a.23.23,0,0,1-.08-.21.39.39,0,0,1,.17-.29Z" transform="translate(-60 -59.13)"/><path class="cls-55" d="M791.08,546.14c0-.1-.08-.14-.19-.12a2,2,0,0,0-.39.13,3.57,3.57,0,0,0-.46.26l-.38.28a6.43,6.43,0,0,0-1,1,8.51,8.51,0,0,0-.81,1.21,7.12,7.12,0,0,0-.55,1.21,3.19,3.19,0,0,0-.21,1,.67.67,0,0,0,.31.64,1.2,1.2,0,0,0,1-.06,3.51,3.51,0,0,0,1.43-1.11,9.45,9.45,0,0,0,1.15-1.73.9.9,0,0,1-.32-.39,1.2,1.2,0,0,1-.09-.45,1.27,1.27,0,0,1,.16-.62,2.44,2.44,0,0,1,.38-.55,1.42,1.42,0,0,1,.46-.37.53.53,0,0,1,.42,0,.61.61,0,0,1,.32.74,4.67,4.67,0,0,1-.4,1.24,5.36,5.36,0,0,0,.57.16,4.13,4.13,0,0,0,.67.07,7.15,7.15,0,0,0,2.31-.44,7.59,7.59,0,0,0,2.27-1.24l.43-.38a.45.45,0,0,1,.24-.16.28.28,0,0,1,.2,0c.21.13.22.3,0,.49l-.38.35a9.36,9.36,0,0,1-2.81,1.58,8.06,8.06,0,0,1-2.55.47l-.77-.05a2.46,2.46,0,0,1-.59-.12c-.2.33-.38.63-.57.9s-.36.51-.53.72a7.23,7.23,0,0,1-.89.86,4.52,4.52,0,0,1-1,.62,2.83,2.83,0,0,1-.95.28,1.27,1.27,0,0,1-.82-.19,1.09,1.09,0,0,1-.43-1,4.46,4.46,0,0,1,.38-1.6,8.37,8.37,0,0,1,1-1.84,8.84,8.84,0,0,1,1.5-1.61,4.08,4.08,0,0,1,1.8-.92c.5,0,.78.08.84.41a.47.47,0,0,1-.35.43l0,0a.41.41,0,0,1-.31.09A.2.2,0,0,1,791.08,546.14Z" transform="translate(-60 -59.13)"/><path class="cls-55" d="M809.86,544.54a1.67,1.67,0,0,1,.58-.52c.16-.06.27,0,.34.05a.65.65,0,0,1,.08.41,1.68,1.68,0,0,1-.13.58,11.35,11.35,0,0,1-.78,1.85c-.37.72-.8,1.5-1.3,2.33,1-.42,2-.82,2.94-1.19s1.87-.72,2.73-1.07a6.48,6.48,0,0,1,.64-.25,3.26,3.26,0,0,0,.61-.25c.27-.11.41,0,.41.27a.72.72,0,0,1-.38.37L812,548.53c-1.26.49-2.56,1-3.89,1.61l0-.06c-.44.7-.91,1.4-1.4,2.13s-1,1.43-1.49,2.11-1,1.34-1.47,2-.91,1.16-1.32,1.63-1.07,1.21-1.78,2a25.67,25.67,0,0,1-2.25,2.17,18.18,18.18,0,0,1-2.38,1.76,4.4,4.4,0,0,1-2.19.72,2,2,0,0,1-1.22-.4,1.89,1.89,0,0,1-.72-1.6,4.11,4.11,0,0,1,.21-1.22,8,8,0,0,1,.61-1.36,11.34,11.34,0,0,1,.94-1.39,10.68,10.68,0,0,1,1.22-1.3,24.33,24.33,0,0,1,2.71-2.18c1-.69,2-1.36,3.14-2s2.24-1.24,3.42-1.81,2.35-1.1,3.51-1.61l0,.06c.21-.33.44-.69.68-1.1s.48-.81.7-1.22.42-.78.59-1.14a9.33,9.33,0,0,0,.41-.94l-.18.2c-.32.41-.72.88-1.17,1.43s-.91,1.08-1.38,1.57a15.26,15.26,0,0,1-1.32,1.27,2,2,0,0,1-1,.57c-.37,0-.58-.08-.64-.35a1.92,1.92,0,0,1,.09-1,8.82,8.82,0,0,1,.47-1.24q.31-.64.54-1l0-.06a2.27,2.27,0,0,1,.26-.28.47.47,0,0,1,.29-.13c.25,0,.32.11.2.32a.23.23,0,0,1,0,.09.23.23,0,0,0,0,.09l-.39.75c-.16.33-.31.65-.45,1a5,5,0,0,0-.27.84c-.05.24,0,.36.13.36s.35-.17.71-.5.75-.76,1.19-1.25.87-1,1.3-1.54l1.09-1.32Zm-3,6.32.2-.29q-2.93,1.3-5.69,2.81a34.91,34.91,0,0,0-5.06,3.34h0a11.58,11.58,0,0,0-2.87,3.07,5.19,5.19,0,0,0-.87,2.52,1.56,1.56,0,0,0,.38,1.13,1.34,1.34,0,0,0,1,.41,3.09,3.09,0,0,0,1.11-.24,6,6,0,0,0,1.35-.72,20.08,20.08,0,0,0,2.91-2.52c1-1,2-2.1,2.89-3.24s1.79-2.24,2.59-3.34,1.47-2.08,2-2.93Z" transform="translate(-60 -59.13)"/><path class="cls-55" d="M824,548.17a6.37,6.37,0,0,1-1.5.84,6.07,6.07,0,0,1-1.4.34,4.75,4.75,0,0,0-.45.95,2.31,2.31,0,0,0-.16.79.66.66,0,0,0,.32.67,1.58,1.58,0,0,0,.84.1,5.66,5.66,0,0,0,1.45-.39,22.73,22.73,0,0,0,3.1-1.46c1.12-.63,2.21-1.27,3.27-1.93.83-.52,1.62-1,2.35-1.51a.43.43,0,0,1,.29-.1.24.24,0,0,1,.2.1c.06.16,0,.31-.23.47l-.78.49a6.52,6.52,0,0,0-.78.51c-.26.18-.52.35-.79.5L828,549.59l-1.73,1c-.59.32-1.14.61-1.67.87s-1,.47-1.49.65a6.26,6.26,0,0,1-2,.43,1.55,1.55,0,0,1-1-.32,1.06,1.06,0,0,1-.34-.87,3.92,3.92,0,0,1,.52-1.71,7.26,7.26,0,0,1,.58-.89,12.87,12.87,0,0,1,.84-1,12.57,12.57,0,0,1,1.26-1.27,4.77,4.77,0,0,1,1.26-.87,1.54,1.54,0,0,1,1.1-.18.54.54,0,0,1,.36.57,2,2,0,0,1-.42,1A5.3,5.3,0,0,1,824,548.17Zm-1.83-.23a6.33,6.33,0,0,0-.61.72,6.73,6.73,0,0,0,1.33-.45,5.19,5.19,0,0,0,1.31-.88,2.84,2.84,0,0,0,.56-.73.6.6,0,0,0,.1-.46c-.11-.12-.41-.06-.88.19A6.92,6.92,0,0,0,822.12,547.94Z" transform="translate(-60 -59.13)"/><path class="cls-55" d="M847.33,533.94a5.6,5.6,0,0,1-1.14,2.11,19.54,19.54,0,0,1-2.25,2.38q-1.34,1.22-2.94,2.46c-1.07.83-2.14,1.63-3.22,2.38s-2.1,1.45-3.1,2.1-1.86,1.19-2.59,1.64a18.93,18.93,0,0,0-1.22,2.46,4.71,4.71,0,0,0-.37,1.57.72.72,0,0,0,.81.81,4.15,4.15,0,0,0,1.49-.37,14.7,14.7,0,0,0,2-1c.75-.43,1.58-1,2.47-1.54s1.8-1.23,2.75-1.92l.55-.41c.25-.14.42-.14.49,0v0a.21.21,0,0,1,0,.24.49.49,0,0,1-.2.23c-.56.42-1.19.88-1.9,1.37s-1.42,1-2.15,1.44-1.43.9-2.13,1.3a18.51,18.51,0,0,1-1.88,1,8.28,8.28,0,0,1-1.07.35,4.14,4.14,0,0,1-.81.11,1.19,1.19,0,0,1-1-.33,1.37,1.37,0,0,1-.27-.89,3.44,3.44,0,0,1,.16-1,11,11,0,0,1,.42-1.16c.17-.41.37-.83.59-1.26s.45-.86.69-1.26c.34-.6.69-1.15,1-1.65s.62-.89.83-1.16v0c.6-.87,1.27-1.8,2-2.8s1.52-2,2.3-2.92,1.57-1.85,2.35-2.68a20.74,20.74,0,0,1,2.22-2.09,6.24,6.24,0,0,1,1.66-.9,4.76,4.76,0,0,1,1.55-.32,2,2,0,0,1,1.4.47A1.31,1.31,0,0,1,847.33,533.94Zm-4.63-.18a18,18,0,0,0-1.71,1.57q-.9.93-1.83,2c-.62.73-1.23,1.48-1.84,2.26s-1.19,1.56-1.74,2.32-1.07,1.49-1.55,2.19-.91,1.32-1.27,1.88c.75-.46,1.59-1,2.53-1.62s1.9-1.28,2.9-2,2-1.42,2.93-2.16,1.82-1.48,2.59-2.2a17.18,17.18,0,0,0,1.93-2.1,4.93,4.93,0,0,0,.94-1.86.87.87,0,0,0-.25-1,1.57,1.57,0,0,0-1.05-.32A4.55,4.55,0,0,0,842.7,533.76Z" transform="translate(-60 -59.13)"/><path class="cls-55" d="M849.16,548.75a1.54,1.54,0,0,1-1-.8,3.08,3.08,0,0,1-.07-1.44,9.21,9.21,0,0,1,.58-2,19.69,19.69,0,0,1,1.21-2.6c.5-.91,1.08-1.86,1.71-2.82a27.08,27.08,0,0,1,2.06-2.73,22.48,22.48,0,0,1,2.27-2.3,10.48,10.48,0,0,1,2.34-1.58,4.57,4.57,0,0,1,2-.49,1.5,1.5,0,0,1,1.59.93v0a2.31,2.31,0,0,1,.12.89,9.46,9.46,0,0,1-.2,1.72c-.14.67-.32,1.41-.55,2.21s-.5,1.64-.79,2.52-.59,1.76-.91,2.62-.63,1.72-.94,2.54-.6,1.57-.87,2.25L857,549.5l-.2.58c-.17.46-.39,1-.65,1.77s-.52,1.46-.77,2.24-.46,1.55-.64,2.31a8.87,8.87,0,0,0-.26,1.88c0,.6.16.93.47,1a5,5,0,0,0,2.63-.71,19.85,19.85,0,0,0,3.08-2.12,41.26,41.26,0,0,0,3.21-3c1.08-1.12,2.11-2.22,3.07-3.32s1.84-2.14,2.61-3.12,1.4-1.77,1.86-2.39,1.15-1.55,1.82-2.51,1.37-2,2.08-3,1.39-2.15,2.07-3.27,1.29-2.18,1.85-3.21,1-2,1.42-2.9a11.3,11.3,0,0,0,.76-2.3,4.43,4.43,0,0,0,.08-.8.41.41,0,0,0-.4-.45c-.25,0-.3-.13-.15-.41h0a.42.42,0,0,1,.21-.18.6.6,0,0,1,.29-.08.84.84,0,0,1,.66.35,1.3,1.3,0,0,1,.18.7,2.6,2.6,0,0,1-.06.56c0,.19-.09.38-.15.6a22.13,22.13,0,0,1-1.21,3c-.56,1.18-1.25,2.45-2.06,3.83s-1.72,2.81-2.72,4.33-2.07,3-3.19,4.58-2.28,3-3.46,4.52-2.38,2.87-3.57,4.17-2.35,2.49-3.48,3.55a26.71,26.71,0,0,1-3.2,2.61q-.55.35-1.2.69a9.53,9.53,0,0,1-1.31.6,6.36,6.36,0,0,1-1.24.33,2,2,0,0,1-1-.06c-.43-.17-.64-.64-.64-1.41a8.77,8.77,0,0,1,.27-2c.19-.77.4-1.55.66-2.35s.51-1.56.78-2.29.49-1.33.66-1.81l.18-.49c.1-.25.2-.54.32-.86s.25-.66.4-1c.29-.74.61-1.57.95-2.48l1-2.81c.34-1,.66-1.91,1-2.86s.55-1.83.77-2.65a18,18,0,0,0,.44-2.19,3.59,3.59,0,0,0,0-1.45,1.18,1.18,0,0,0-.43-.43,1.26,1.26,0,0,0-.67-.17,3.54,3.54,0,0,0-1,.18,6.66,6.66,0,0,0-1.13.51,13.72,13.72,0,0,0-2.77,2.39,35.35,35.35,0,0,0-2.57,3.23,29.38,29.38,0,0,0-2.1,3.41,23,23,0,0,0-1.34,2.91,5.81,5.81,0,0,0-.22.84,5.23,5.23,0,0,0-.07.75,1.59,1.59,0,0,0,.18.77,1,1,0,0,0,.58.48.24.24,0,0,1,.18.14.27.27,0,0,1-.07.27.65.65,0,0,1-.46.26Z" transform="translate(-60 -59.13)"/><path class="cls-55" d="M877.18,546.75a26.82,26.82,0,0,0-1.27,2.48,4.72,4.72,0,0,0-.49,1.83c0,.54.25.82.75.82a4.67,4.67,0,0,0,1.75-.53,21.68,21.68,0,0,0,2.94-1.68c.74-.5,1.46-1,2.18-1.52l2.14-1.55a.36.36,0,0,1,.25-.13.26.26,0,0,1,.24.1s0,.11,0,.21a.48.48,0,0,1-.17.23l-2,1.43c-.77.55-1.57,1.09-2.38,1.63s-1.61,1-2.39,1.44a10.71,10.71,0,0,1-2,.92,3.7,3.7,0,0,1-.87.11,1.14,1.14,0,0,1-.93-.33,1.38,1.38,0,0,1-.26-.86,3.73,3.73,0,0,1,.2-1.11,13,13,0,0,1,.5-1.28c.19-.43.39-.85.61-1.26s.4-.75.58-1a.56.56,0,0,1,.17-.18.76.76,0,0,1,.26-.11.23.23,0,0,1,.26,0C877.3,546.48,877.28,546.59,877.18,546.75Zm2-5.6c-.32.06-.42,0-.29-.32v0a.44.44,0,0,1,.16-.21,1.12,1.12,0,0,1,.28-.16c.42-.08.64,0,.65.24a1.78,1.78,0,0,1-.27.89c-.2.34-.43.7-.7,1.07s-.47.64-.61.81a.62.62,0,0,1-.23.19.53.53,0,0,1-.23.07c-.12,0-.2,0-.23-.13s0-.19.11-.3v0l.33-.44c.19-.24.37-.5.56-.77s.33-.51.44-.71S879.25,541.14,879.15,541.15Z" transform="translate(-60 -59.13)"/><path class="cls-55" d="M885.76,546.78l-1,1.6c-.43.65-.83,1.32-1.22,2l.87-1c.25-.29.48-.56.7-.84s.4-.5.57-.69l.18-.2c.27-.31.64-.71,1.1-1.19a16.44,16.44,0,0,1,1.44-1.34,6.61,6.61,0,0,1,1.4-.91c.45-.2.78-.17,1,.1a1.28,1.28,0,0,1,.17,1c-.06.48-.15,1-.26,1.55-.08.33-.15.68-.22,1a4.94,4.94,0,0,0-.1.94,1.42,1.42,0,0,0,.14.67.56.56,0,0,0,.53.26,1.52,1.52,0,0,0,.4-.07,4.7,4.7,0,0,0,.49-.16c.33-.14.69-.31,1.08-.52l1.16-.67,1.13-.71,1-.68.52-.35c.25-.15.42-.13.5.06a.82.82,0,0,1-.06.22.39.39,0,0,1-.21.19l-.78.52-1.43,1c-.48.31-1,.6-1.47.87a9.77,9.77,0,0,1-1.62.79,3.62,3.62,0,0,1-1.07.23.91.91,0,0,1-.84-.36,1.72,1.72,0,0,1-.23-.95,5.61,5.61,0,0,1,.1-1c.07-.37.15-.73.24-1.1s.18-.86.25-1.23a1.47,1.47,0,0,0,0-.86q-.12-.25-.54-.06a4.82,4.82,0,0,0-1,.73c-.39.35-.81.76-1.26,1.25s-.91,1-1.36,1.47-.88,1-1.26,1.47l-1,1.17v0l-.58.73-.06,0a2.42,2.42,0,0,1-.27.32l-.32.34a.87.87,0,0,1-.33.21.32.32,0,0,1-.29,0c-.06,0,0-.2.08-.48s.29-.62.51-1,.47-.83.76-1.3.55-.92.81-1.34l.69-1.1c.2-.32.34-.52.39-.62a.58.58,0,0,1,.44-.26C885.86,546.37,885.92,546.5,885.76,546.78Z" transform="translate(-60 -59.13)"/><path class="cls-55" d="M899,546.14a.14.14,0,0,0-.19-.12,1.61,1.61,0,0,0-.39.13,3.67,3.67,0,0,0-.47.26c-.15.11-.28.2-.37.28a6.49,6.49,0,0,0-1,1,8.51,8.51,0,0,0-.81,1.21,8,8,0,0,0-.55,1.21,3.43,3.43,0,0,0-.2,1,.68.68,0,0,0,.3.64,1.2,1.2,0,0,0,1-.06,3.53,3.53,0,0,0,1.44-1.11,9.93,9.93,0,0,0,1.14-1.73,1,1,0,0,1-.32-.39,1.42,1.42,0,0,1-.08-.45,1.27,1.27,0,0,1,.16-.62,2.41,2.41,0,0,1,.37-.55,1.45,1.45,0,0,1,.47-.37.52.52,0,0,1,.42,0c.27.12.37.37.32.74a4.72,4.72,0,0,1-.41,1.24,5.62,5.62,0,0,0,.58.16,3.91,3.91,0,0,0,.67.07,7.14,7.14,0,0,0,2.3-.44,7.47,7.47,0,0,0,2.27-1.24l.44-.38a.42.42,0,0,1,.23-.16.28.28,0,0,1,.2,0c.22.13.23.3,0,.49l-.37.35a9.61,9.61,0,0,1-2.81,1.58,8.07,8.07,0,0,1-2.56.47l-.76-.05a2.55,2.55,0,0,1-.6-.12c-.19.33-.38.63-.56.9s-.36.51-.54.72a7.15,7.15,0,0,1-.88.86,4.52,4.52,0,0,1-1,.62,2.81,2.81,0,0,1-1,.28,1.23,1.23,0,0,1-.81-.19,1.09,1.09,0,0,1-.43-1,4.42,4.42,0,0,1,.37-1.6,8.42,8.42,0,0,1,1-1.84,8.79,8.79,0,0,1,1.49-1.61,4.08,4.08,0,0,1,1.8-.92c.5,0,.78.08.84.41a.45.45,0,0,1-.35.43l0,0a.39.39,0,0,1-.3.09A.19.19,0,0,1,899,546.14Z" transform="translate(-60 -59.13)"/><path class="cls-9" d="M714.36,521.42v.75h-4v2.4h3.6v.74h-3.6v2.48h4.16v.76h-5v-7.13Z" transform="translate(-60 -59.13)"/><path class="cls-9" d="M717.9,521v7.56h-.79V521Z" transform="translate(-60 -59.13)"/><path class="cls-9" d="M729.94,525.25v3.3h-.8v-3.1a1.4,1.4,0,0,0-1.52-1.52,1.79,1.79,0,0,0-1.81,2v2.63H725V521h.79v3.4a2.11,2.11,0,0,1,2.09-1.23A1.9,1.9,0,0,1,729.94,525.25Z" transform="translate(-60 -59.13)"/><path class="cls-9" d="M737.61,525.86a2.72,2.72,0,1,1-2.71-2.7A2.61,2.61,0,0,1,737.61,525.86Zm-4.64,0a1.93,1.93,0,1,0,1.93-2A1.88,1.88,0,0,0,733,525.87Z" transform="translate(-60 -59.13)"/><path class="cls-9" d="M742.79,528.18a2.21,2.21,0,0,1-1.21.4c-.79,0-1.37-.46-1.37-1.52V524h-.77v-.62h.77V522H741v1.41h1.7V524H741v2.95c0,.65.25.91.71.91a1.87,1.87,0,0,0,.86-.27Z" transform="translate(-60 -59.13)"/><path class="cls-9" d="M749.54,526.17h-4.37a1.88,1.88,0,0,0,1.94,1.74,2.25,2.25,0,0,0,1.66-.68l.44.46a2.85,2.85,0,0,1-2.16.89,2.71,2.71,0,0,1,0-5.42C748.77,523.16,749.62,524.35,749.54,526.17Zm-.71-.64a1.69,1.69,0,0,0-1.79-1.71,1.81,1.81,0,0,0-1.87,1.71Z" transform="translate(-60 -59.13)"/><path class="cls-9" d="M752.76,521v7.56H752V521Z" transform="translate(-60 -59.13)"/><path class="cls-9" d="M764.76,521v7.56H764v-1.16a2.22,2.22,0,0,1-2.08,1.19,2.72,2.72,0,0,1,0-5.43,2.24,2.24,0,0,1,2.09,1.2V521Zm-.8,4.89a1.94,1.94,0,1,0-1.93,2A1.92,1.92,0,0,0,764,525.88Z" transform="translate(-60 -59.13)"/><path class="cls-9" d="M772.38,526.17H768a1.89,1.89,0,0,0,1.94,1.74,2.25,2.25,0,0,0,1.66-.68l.44.46a2.85,2.85,0,0,1-2.16.89,2.71,2.71,0,0,1,0-5.42C771.6,523.16,772.46,524.35,772.38,526.17Zm-.72-.64a1.69,1.69,0,0,0-1.79-1.71,1.81,1.81,0,0,0-1.87,1.71Z" transform="translate(-60 -59.13)"/><path class="cls-9" d="M378.6,625.42c0-.55.06-1.14.08-1.76s0-1.28,0-1.95,0-1.34,0-2,0-1.37,0-2,0-1.31,0-1.94-.05-1.22-.08-1.77h.92c.25.41.52.83.82,1.28s.6.91.93,1.39.65,1,1,1.46l1.05,1.49,1.08,1.5,1.08,1.47,1.08-1.47c.36-.49.72-1,1.07-1.5s.72-1,1.06-1.49l1-1.46,1-1.39.85-1.28h.86c0,.55-.08,1.14-.11,1.77s-.06,1.28-.07,1.94,0,1.35,0,2,0,1.36,0,2,0,1.32.07,1.95.07,1.21.11,1.76h-1.69c0-.42.06-.87.09-1.34s0-1,.05-1.47,0-1,0-1.55v-4.59l-1.22,1.68c-.42.57-.83,1.14-1.24,1.72l-1.21,1.72q-.6.84-1.14,1.65l-.91,1.33c-.86-1.3-1.75-2.59-2.65-3.86s-1.83-2.54-2.76-3.8v2.3c0,.56,0,1.1,0,1.66s0,1.09,0,1.61,0,1,.05,1.53,0,1,.06,1.41Z" transform="translate(-60 -59.13)"/><path class="cls-9" d="M383.12,609.08h.75l0,.49,0,.52c0,.18,0,.37,0,.56s0,.37,0,.56h3.31c0-.19,0-.38,0-.56s0-.38,0-.56,0-.35,0-.52,0-.33,0-.49h.76c0,.25,0,.51,0,.79s0,.56,0,.86,0,.6,0,.9,0,.61,0,.91,0,.59,0,.86,0,.54,0,.79H387c0-.19,0-.38,0-.59s0-.43,0-.65,0-.45,0-.68,0-.47,0-.7h-3.31c0,.23,0,.47,0,.7s0,.45,0,.68,0,.44,0,.65,0,.4,0,.59h-.75c0-.25,0-.51,0-.79s0-.56,0-.86v-.91c0-.3,0-.6,0-.9s0-.58,0-.86S383.13,609.33,383.12,609.08Z" transform="translate(-60 -59.13)"/><path class="cls-9" d="M386.38,626.86a1.78,1.78,0,0,1,.53.08,1.38,1.38,0,0,1,.42.21,1.37,1.37,0,0,1,.54,1.1,1.19,1.19,0,0,1-.06.42,1.17,1.17,0,0,1-.17.38,1.26,1.26,0,0,1-.3.31,1.38,1.38,0,0,1-.42.21,1.8,1.8,0,0,1-.54.08h-2.56c0,.21,0,.41,0,.62s0,.4,0,.6,0,.39,0,.57,0,.36,0,.53h-.72l0-.53c0-.18,0-.37,0-.57s0-.39,0-.6,0-.41,0-.61,0-.5,0-.75,0-.49,0-.73,0-.46,0-.69,0-.43,0-.63Zm0,2.43a.88.88,0,0,0,.33,0,.89.89,0,0,0,.25-.16.88.88,0,0,0,.19-.24,1.17,1.17,0,0,0,.11-.28,1.55,1.55,0,0,0,0-.31,1.17,1.17,0,0,0-.14-.59,1,1,0,0,0-.18-.23.87.87,0,0,0-.26-.16.88.88,0,0,0-.33-.06h-2.54v2.08Z" transform="translate(-60 -59.13)"/><path class="cls-9" d="M385.45,638.5c-6.08,0-11-8.14-11-18.15s4.95-18.15,11-18.15,11,8.14,11,18.15S391.53,638.5,385.45,638.5Zm0-35.8c-5.81,0-10.54,7.92-10.54,17.65S379.64,638,385.45,638,396,630.08,396,620.35,391.26,602.7,385.45,602.7Z" transform="translate(-60 -59.13)"/><path class="cls-9" d="M385.45,640.23c-7,0-12.77-8.92-12.77-19.88s5.73-19.88,12.77-19.88,12.77,8.91,12.77,19.88S392.49,640.23,385.45,640.23Zm0-39.27c-6.77,0-12.27,8.7-12.27,19.39s5.5,19.39,12.27,19.39,12.27-8.7,12.27-19.39S392.21,601,385.45,601Z" transform="translate(-60 -59.13)"/><rect class="cls-7" x="899.72" y="458.38" width="203.94" height="69.98"/><polygon class="cls-15" points="1078 497.91 1077.19 497.05 1081.46 493.08 1077.19 489.12 1078 488.25 1083.19 493.08 1078 497.91"/><text class="cls-56" transform="translate(919.71 497.78)"><tspan class="cls-57">V</tspan><tspan class="cls-58" x="9.41" y="0">ER HABI</tspan><tspan class="cls-59" x="68.38" y="0">T</tspan><tspan class="cls-60" x="75.77" y="0">A</tspan><tspan x="85.5" y="0">CIONES</tspan></text><rect class="cls-7" x="553.67" y="545.31" width="549.99" height="69.98"/><text class="cls-56" transform="translate(573.65 584.71)">RESER<tspan class="cls-61" x="47.42" y="0">V</tspan><tspan x="56.53" y="0">A AHORA</tspan></text><rect class="cls-15" x="1008.06" y="579.7" width="72.33" height="1.19"/><polygon class="cls-15" points="1076.46 585.15 1075.65 584.28 1079.94 580.3 1075.65 576.31 1076.46 575.44 1081.68 580.3 1076.46 585.15"/></svg>