<svg xmlns="http://www.w3.org/2000/svg" viewBox="0 0 44.79 44.81"><defs><style>.cls-1{fill:#baa57d;}</style></defs><g id="Layer_2" data-name="Layer 2"><g id="Layer_1-2" data-name="Layer 1"><path class="cls-1" d="M22.39,44.81A22.41,22.41,0,0,1,6.55,6.56,22.4,22.4,0,0,1,44.79,22.4a22.41,22.41,0,0,1-22.4,22.41Zm0-44.26A21.85,21.85,0,0,0,6.94,37.85,21.85,21.85,0,0,0,44.23,22.4,21.83,21.83,0,0,0,22.39.55Zm-2,39.66-.31,0A17.69,17.69,0,0,1,9.72,35.08,17.92,17.92,0,0,1,6.36,14.42l.17-.34L20.42,28ZM6.68,15A17.38,17.38,0,0,0,10.1,34.69a17.17,17.17,0,0,0,9.77,4.89V28.2Zm18,25.17,15-22.76.15.61a17.79,17.79,0,0,1-4.69,17,17.81,17.81,0,0,1-9.81,5Zm14.73-21.4L25.79,39.42a17.32,17.32,0,0,0,14-17A17.45,17.45,0,0,0,39.36,18.78Zm-15,14.68V10H20.42v12.4L8.78,10.77l.35-.4c.19-.21.38-.43.58-.64a17.93,17.93,0,0,1,25.35,0A18.55,18.55,0,0,1,37.62,13l.09.15Zm-4.48-24h5V31.62L37.06,13.13a18.09,18.09,0,0,0-2.39-3,17.37,17.37,0,0,0-24.57,0c-.19.2-.38.41-.56.62h0L19.87,21.09Z"/></g></g></svg>