<svg xmlns="http://www.w3.org/2000/svg" viewBox="0 0 125.55 125.48"><defs><style>.cls-1{fill:#baa57d;}</style></defs><g id="Layer_2" data-name="Layer 2"><g id="Layer_1-2" data-name="Layer 1"><path class="cls-1" d="M62.79,85.82A23.06,23.06,0,1,1,85.85,62.76,23.09,23.09,0,0,1,62.79,85.82Zm0-45.33A22.27,22.27,0,1,0,85.06,62.76,22.29,22.29,0,0,0,62.79,40.49Zm0,29.66a7.39,7.39,0,1,1,7.39-7.39A7.4,7.4,0,0,1,62.79,70.15Zm0-14a6.61,6.61,0,1,0,6.61,6.6A6.61,6.61,0,0,0,62.79,56.16Z"/><path class="cls-1" d="M36.93,120l-.72-.34a64.38,64.38,0,0,1-8.42-4.77l-.68-.46L36,102.25l-2.62-1.92L24.48,112.5l-.65-.51a62.68,62.68,0,0,1-7.41-6.91l-.56-.61,11.51-9.71-2.1-2.48L13.76,102l-.51-.65a64.78,64.78,0,0,1-5.47-8.28l-.4-.73,13.47-6.75-1.46-2.91L5.92,89.43l-.34-.76A62.74,62.74,0,0,1,2.2,79.36L2,78.56l14.55-3.39L15.8,72,1.25,75.39l-.16-.82a62.49,62.49,0,0,1-1-9.36l0-.82H15.07V61.13H0l0-.83a65.48,65.48,0,0,1,.86-8.17L1,51.46H38.19l-.45,1.1A27,27,0,0,0,51.46,87.28l.74.33Zm-8.71-5.76h0a63.33,63.33,0,0,0,8.32,4.71h0L51.15,88h0A27.77,27.77,0,0,1,37,52.27v0H1.67a62.06,62.06,0,0,0-.85,8.08h15v4.82H.82a61,61,0,0,0,1.05,9.25h0l14.52-3.38,1.09,4.7L3,79.14H3a63.94,63.94,0,0,0,3.33,9.2h0l13.44-6.74,2.16,4.31L8.46,92.67h0a62.49,62.49,0,0,0,5.41,8.17h0l11.48-9.69,3.11,3.68L17,104.54v0a62.7,62.7,0,0,0,7.32,6.81h0l8.85-12.15,3.9,2.84Z"/><path class="cls-1" d="M88.61,120,73.35,87.62l.73-.34A27.07,27.07,0,0,0,89.79,62.76a26.69,26.69,0,0,0-2-10.19l-.45-1.11h37.19l.11.67a63.55,63.55,0,0,1,.86,8.17l0,.83H110.47v3.26h15.07l0,.82a63.52,63.52,0,0,1-1.06,9.36l-.15.82L109.74,72,109,75.17l14.56,3.39-.22.8A62.23,62.23,0,0,1,120,88.67l-.33.76-13.48-6.76-1.45,2.91,13.47,6.75-.41.73a64.11,64.11,0,0,1-5.47,8.28l-.51.65-11.5-9.71-2.1,2.48,11.5,9.71-.56.61a63.46,63.46,0,0,1-7.41,6.91l-.65.51-8.87-12.17-2.63,1.92,8.88,12.17-.69.46a62.35,62.35,0,0,1-8.42,4.77ZM74.4,88,89,118.94h0a62.44,62.44,0,0,0,8.31-4.71h0l-8.86-12.16,3.9-2.84,8.85,12.15h0a62.55,62.55,0,0,0,7.31-6.81h0l-11.48-9.7,3.12-3.68,11.48,9.7v0a62.78,62.78,0,0,0,5.4-8.17h0l-13.44-6.74,2.16-4.31,13.44,6.74h0a62.25,62.25,0,0,0,3.33-9.2h0l-14.52-3.38,1.09-4.7,14.52,3.38h0a62.19,62.19,0,0,0,1-9.25h-15V60.35h15a61.8,61.8,0,0,0-.86-8.08H88.52v0A27.8,27.8,0,0,1,74.41,88Z"/><path class="cls-1" d="M65.3,125.48H59.17v-.1a61.75,61.75,0,0,1-18.4-3.82l-.82-.3L55.3,88.72l.64.17a28.36,28.36,0,0,0,4.41.74l.36,0v28.68h3.76V89.69l.36,0a28.22,28.22,0,0,0,4.78-.78l.64-.17,15.34,32.54-.81.3a61.91,61.91,0,0,1-19.09,3.87v0ZM60,124.7l5.33,0a61.7,61.7,0,0,0,19.22-3.84h0L69.82,89.64h0a28.8,28.8,0,0,1-4.55.77v28.71H59.92V90.38a28.44,28.44,0,0,1-4.18-.73h0L41,120.82h0a61.69,61.69,0,0,0,18.54,3.79H60Z"/><path class="cls-1" d="M29.28,48.22H22.34l.2-.54A43,43,0,0,1,60.7,19.84l.41,0v6.45l-.37,0A36.41,36.41,0,0,0,29.38,48Zm-5.8-.79h5.29A37.18,37.18,0,0,1,60.32,25.52V20.64A42.18,42.18,0,0,0,23.48,47.43Z"/><path class="cls-1" d="M18.92,48.22h-7l.15-.51A52.92,52.92,0,0,1,60.7,9.86h.41v6.71l-.38,0A46.53,46.53,0,0,0,19,48Zm-6-.79h5.4a47.32,47.32,0,0,1,42-31.62V10.67A52.1,52.1,0,0,0,13,47.43Z"/><path class="cls-1" d="M40,48.22H32.86l.29-.57a33.46,33.46,0,0,1,27.54-18.1l.42,0v6.29l-.73.06a26.67,26.67,0,0,0-9.87,2.84L50,39l0,0a28,28,0,0,0-2.84,1.7l.07.08-.71.53a27.18,27.18,0,0,0-6.22,6.62Zm-5.85-.79h5.43a27.57,27.57,0,0,1,6.4-6.8h0l-.1-.1.38-.26a28.12,28.12,0,0,1,3.58-2.16l.27-.14,0,.06h0a27.49,27.49,0,0,1,10.15-2.92h0V30.36A32.67,32.67,0,0,0,34.15,47.43Z"/><path class="cls-1" d="M123.87,48.22h-6.82l-.07-.29a56.74,56.74,0,0,0-19.12-29A55.64,55.64,0,0,0,64.79,6.61l-.37,0-3.69,0a55.62,55.62,0,0,0-33,12.31,56.76,56.76,0,0,0-19.1,29l-.07.29H1.65l.26-1A63.1,63.1,0,0,1,60,.06h0l.4,0h5V.06a63.08,63.08,0,0,1,58.19,47.16Zm-6.21-.79h5.19A62.29,62.29,0,0,0,65.21.84l-.57,0H60.76l-.45,0A62.29,62.29,0,0,0,2.67,47.42H7.92A57.59,57.59,0,0,1,27.2,18.3,56.46,56.46,0,0,1,60.32,5.84h0l.39,0,4.49,0A56.38,56.38,0,0,1,98.35,18.29,57.58,57.58,0,0,1,117.66,47.43Z"/><path class="cls-1" d="M103.23,48.22H96.3L96.2,48a36.41,36.41,0,0,0-31.41-21.7l-.37,0V19.81l.41,0A43,43,0,0,1,103,47.68Zm-6.42-.79h5.28A42.17,42.17,0,0,0,65.2,20.64v4.87A37.19,37.19,0,0,1,96.81,47.43Z"/><path class="cls-1" d="M113.68,48.22h-7l-.09-.27A46.53,46.53,0,0,0,64.79,16.57l-.37,0V9.85h.41a52.93,52.93,0,0,1,48.7,37.85Zm-6.46-.79h5.4A52.11,52.11,0,0,0,65.2,10.67v5.14A47.32,47.32,0,0,1,107.22,47.43Z"/><path class="cls-1" d="M92.72,48.22H85.53l-.12-.17A28.23,28.23,0,0,0,66.29,36l-1.15-.13-.72-.06V29.52l.41,0a33.46,33.46,0,0,1,27.6,18.11Zm-6.78-.79h5.49A32.69,32.69,0,0,0,65.2,30.35v4.74l1.18.13A29,29,0,0,1,85.94,47.43Z"/></g></g></svg>