<svg xmlns="http://www.w3.org/2000/svg" viewBox="0 0 24.53 24.57"><defs><style>.cls-1{fill:#baa57d;}</style></defs><g id="Layer_2" data-name="Layer 2"><g id="Layer_1-2" data-name="Layer 1"><path class="cls-1" d="M17.05,0H7.48A7.5,7.5,0,0,0,0,7.49v9.6a7.49,7.49,0,0,0,7.48,7.48h9.57a7.49,7.49,0,0,0,7.48-7.48V7.49A7.5,7.5,0,0,0,17.05,0Zm.42,22.69H7.06a5.19,5.19,0,0,1-5.18-5.18V7.08A5.2,5.2,0,0,1,7.06,1.89H17.47a5.19,5.19,0,0,1,5.17,5.19V17.51A5.19,5.19,0,0,1,17.47,22.69Z"/><path class="cls-1" d="M12.31,6.84a5.62,5.62,0,1,0,5.6,5.62A5.62,5.62,0,0,0,12.31,6.84Zm0,9.45a3.84,3.84,0,1,1,3.82-3.83A3.83,3.83,0,0,1,12.31,16.29Z"/><path class="cls-1" d="M18.72,4.35A1.64,1.64,0,1,0,20.35,6,1.64,1.64,0,0,0,18.72,4.35Z"/></g></g></svg>