<svg xmlns="http://www.w3.org/2000/svg" viewBox="0 0 39.2 38.33"><defs><style>.cls-1{fill:#baa57d;}</style></defs><g id="Layer_2" data-name="Layer 2"><g id="Layer_1-2" data-name="Layer 1"><path class="cls-1" d="M31.84,0H7.36A7.37,7.37,0,0,0,0,7.36V31a7.37,7.37,0,0,0,7.36,7.36H31.84A7.37,7.37,0,0,0,39.2,31V7.36A7.37,7.37,0,0,0,31.84,0ZM30.21,23.32a6.48,6.48,0,0,1-6.47,6.48H15.46A6.48,6.48,0,0,1,9,23.32V15a6.48,6.48,0,0,1,6.47-6.48h8.28A6.48,6.48,0,0,1,30.21,15Z"/><path class="cls-1" d="M19.63,16.2a3.11,3.11,0,1,0,3.1,3.11A3.11,3.11,0,0,0,19.63,16.2Z"/><path class="cls-1" d="M23.87,10.65H15.34a4.25,4.25,0,0,0-4.25,4.25v8.55a4.25,4.25,0,0,0,4.25,4.24h8.53a4.25,4.25,0,0,0,4.24-4.24V14.9A4.25,4.25,0,0,0,23.87,10.65ZM19.63,24.26a5,5,0,1,1,4.95-5A5,5,0,0,1,19.63,24.26Zm5.35-9a1.32,1.32,0,1,1,1.33-1.32A1.33,1.33,0,0,1,25,15.23Z"/></g></g></svg>