<svg xmlns="http://www.w3.org/2000/svg" viewBox="0 0 25.54 39.77"><defs><style>.cls-1{fill:#baa57d;}</style></defs><g id="Layer_2" data-name="Layer 2"><g id="Layer_1-2" data-name="Layer 1"><path class="cls-1" d="M5.92,25c0-.55.06-1.14.07-1.77s0-1.27,0-1.94,0-1.35,0-2,0-1.36,0-2,0-1.32,0-1.95S6,14,5.92,13.47h.92c.25.4.52.83.82,1.28l.93,1.38c.32.48.65,1,1,1.46l1.05,1.5,1.08,1.5c.36.5.72,1,1.08,1.46.36-.47.71-1,1.08-1.46L15,19.09,16,17.59l1-1.46L18,14.75c.31-.45.59-.88.86-1.28h.86c-.05.55-.09,1.14-.12,1.76s-.05,1.28-.06,1.95,0,1.35,0,2,0,1.37,0,2,0,1.31.06,1.94.07,1.22.12,1.77H18q0-.63.09-1.35c0-.47,0-1,.05-1.47s0-1,0-1.54V16l-1.22,1.67c-.42.57-.83,1.15-1.24,1.72l-1.21,1.72-1.15,1.66-.9,1.33c-.87-1.31-1.75-2.6-2.66-3.87S8,17.7,7,16.45v2.3c0,.55,0,1.1,0,1.65s0,1.09,0,1.61,0,1,0,1.54,0,1,.07,1.41Z"/><path class="cls-1" d="M10.43,8.62h.76l0,.48,0,.53c0,.18,0,.36,0,.55s0,.38,0,.57h3.31c0-.19,0-.38,0-.57s0-.37,0-.55,0-.36,0-.53,0-.33,0-.48h.76c0,.24,0,.5,0,.78s0,.57,0,.87,0,.59,0,.9,0,.61,0,.9,0,.59,0,.87,0,.54,0,.78h-.76c0-.18,0-.38,0-.59s0-.42,0-.65,0-.45,0-.68v-.7H11.1c0,.24,0,.47,0,.7s0,.46,0,.68,0,.44,0,.65,0,.41,0,.59h-.76c0-.24,0-.5.05-.78l0-.87v-.9c0-.31,0-.61,0-.9l0-.87C10.46,9.12,10.45,8.86,10.43,8.62Z"/><path class="cls-1" d="M13.7,26.39a1.78,1.78,0,0,1,.53.08,2.06,2.06,0,0,1,.42.21A1.3,1.3,0,0,1,15,27a1.33,1.33,0,0,1,.18.38,1.43,1.43,0,0,1,0,.82,1.17,1.17,0,0,1-.17.38,1.26,1.26,0,0,1-.3.31,1.67,1.67,0,0,1-.42.22,1.86,1.86,0,0,1-.54.07H11.14c0,.2,0,.41,0,.61s0,.41,0,.61,0,.38,0,.57,0,.36,0,.52h-.72c0-.16,0-.34,0-.52s0-.38,0-.57,0-.4,0-.6V28.44c0-.24,0-.48,0-.72s0-.47,0-.69,0-.44,0-.64Zm0,2.44a.88.88,0,0,0,.33-.06,1,1,0,0,0,.44-.39,1,1,0,0,0,.1-.29,1,1,0,0,0,0-.3,1.55,1.55,0,0,0,0-.31,1.72,1.72,0,0,0-.11-.29,1.3,1.3,0,0,0-.18-.23A.87.87,0,0,0,14,26.8a1.14,1.14,0,0,0-.33-.05H11.14v2.08Z"/><path class="cls-1" d="M12.77,38c-6.09,0-11-8.14-11-18.15s4.94-18.15,11-18.15,11,8.15,11,18.15S18.85,38,12.77,38Zm0-35.8C7,2.23,2.23,10.15,2.23,19.88S7,37.54,12.77,37.54,23.3,29.62,23.3,19.88,18.57,2.23,12.77,2.23Z"/><path class="cls-1" d="M12.77,39.77C5.73,39.77,0,30.85,0,19.88S5.73,0,12.77,0,25.54,8.92,25.54,19.88,19.81,39.77,12.77,39.77ZM12.77.5C6,.5.5,9.19.5,19.88S6,39.27,12.77,39.27,25,30.58,25,19.88,19.53.5,12.77.5Z"/></g></g></svg>