<svg xmlns="http://www.w3.org/2000/svg" viewBox="0 0 28.64 45.12"><defs><style>.cls-1{fill:#baa57d;}</style></defs><g id="Layer_2" data-name="Layer 2"><g id="Layer_1-2" data-name="Layer 1"><path class="cls-1" d="M14.32,28.65A14.33,14.33,0,1,1,28.64,14.33,14.34,14.34,0,0,1,14.32,28.65Zm0-26.57A12.25,12.25,0,1,0,26.57,14.33,12.26,12.26,0,0,0,14.32,2.08Z"/><path class="cls-1" d="M14.32,20.59a6.26,6.26,0,1,1,6.27-6.26A6.27,6.27,0,0,1,14.32,20.59Zm0-10.45a4.19,4.19,0,1,0,4.19,4.19A4.2,4.2,0,0,0,14.32,10.14Z"/><rect class="cls-1" x="13.28" y="27.61" width="2.08" height="17.51"/></g></g></svg>