<svg xmlns="http://www.w3.org/2000/svg" viewBox="0 0 39.2 38.33"><defs><style>.cls-1{fill:#baa57d;}</style></defs><g id="Layer_2" data-name="Layer 2"><g id="Layer_1-2" data-name="Layer 1"><path class="cls-1" d="M13.28,16.17a4.28,4.28,0,1,0,4.28,4.28A4.27,4.27,0,0,0,13.28,16.17Zm0,6.52a2.25,2.25,0,0,1,0-4.49h0a2.25,2.25,0,0,1,0,4.49Z"/><path class="cls-1" d="M25.91,16.17a4.28,4.28,0,1,0,4.28,4.28A4.27,4.27,0,0,0,25.91,16.17Zm0,6.52a2.25,2.25,0,0,1,0-4.49h0a2.25,2.25,0,0,1,0,4.49Z"/><path class="cls-1" d="M31.84,0H7.36A7.37,7.37,0,0,0,0,7.36V31a7.37,7.37,0,0,0,7.36,7.36H31.84A7.37,7.37,0,0,0,39.2,31V7.36A7.37,7.37,0,0,0,31.84,0Zm.39,20.45a6.32,6.32,0,0,1-10.61,4.63l-2,2.2-2-2.2h0A6.31,6.31,0,1,1,9,15.78L7,13.53h4.6a14.29,14.29,0,0,1,16.1,0h4.58l-2.07,2.25A6.33,6.33,0,0,1,32.23,20.45Z"/><path class="cls-1" d="M24.34,14.07a12.27,12.27,0,0,0-9.48,0,7,7,0,0,1,4.74,6.25A7,7,0,0,1,24.34,14.07Z"/></g></g></svg>