<svg xmlns="http://www.w3.org/2000/svg" viewBox="0 0 169.39 35.08"><defs><style>.cls-1{fill:#34e0a1;}</style></defs><g id="Layer_2" data-name="Layer 2"><g id="Layer_1-2" data-name="Layer 1"><path d="M168.46,23.17a.93.93,0,1,0,.93.93A.93.93,0,0,0,168.46,23.17Zm0,1.71a.78.78,0,1,1,.79-.78h0A.8.8,0,0,1,168.46,24.88Zm.3-.94a.26.26,0,0,0-.29-.27h-.3v.84h.15v-.3h.15l.16.3h.16l-.17-.33A.24.24,0,0,0,168.76,23.94Zm-.3.14h-.14V23.8h.14c.1,0,.16.05.16.14S168.56,24.08,168.46,24.08ZM56.78,13.79V11.55H53.34V24.89h3.44v-8c0-1.45.93-2.16,2.38-2.16H61V11.55H59.43A2.53,2.53,0,0,0,56.78,13.79Zm7.48-7.52a2.1,2.1,0,1,0,2.07,2.11,2.07,2.07,0,0,0-2.07-2.11ZM62.54,24.89H66V11.55H62.54Zm19.77-6.67a6.89,6.89,0,0,1-6.9,6.89,6.62,6.62,0,0,1-4-1.35v5H67.94V11.55h3.43v1.13a6.55,6.55,0,0,1,4-1.35,6.89,6.89,0,0,1,6.9,6.89Zm-3.45,0A3.75,3.75,0,1,0,75.11,22h0a3.74,3.74,0,0,0,3.75-3.74Zm63.05-1.17-2-.55c-1.32-.34-1.83-.75-1.83-1.44s.72-1.15,1.75-1.15a1.61,1.61,0,0,1,1.76,1.46v.08h3.16v-.08c0-2.42-2-4-4.92-4s-5,1.62-5,3.86c0,1.74,1.16,3,3.17,3.6l1.92.52c1.45.4,2,.85,2,1.65s-.78,1.41-1.94,1.41a1.86,1.86,0,0,1-2-1.91v-.07h-3.36v.07c0,2.74,2.2,4.65,5.36,4.65s5.24-1.86,5.24-4.44c0-1.25-.56-2.91-3.25-3.62Zm-47.44-5.5H97.9V24.89H94.47V23.76a6.62,6.62,0,0,1-4,1.35,6.9,6.9,0,1,1,0-13.79,6.63,6.63,0,0,1,4,1.36Zm0,6.67h0A3.75,3.75,0,1,0,90.73,22a3.75,3.75,0,0,0,3.74-3.74ZM110.28,6.8h3.43V24.89h-3.43V23.76a6.62,6.62,0,0,1-4,1.35,6.9,6.9,0,1,1,0-13.79,6.63,6.63,0,0,1,4,1.36Zm0,11.42A3.75,3.75,0,1,0,106.54,22a3.74,3.74,0,0,0,3.74-3.74Zm19.36,6.67h3.42V11.55h-3.42Zm1.71-18.62a2.1,2.1,0,1,0,2.08,2.11h0a2.07,2.07,0,0,0-2.08-2.11Zm28.64,12a6.9,6.9,0,1,1-6.9-6.89,6.89,6.89,0,0,1,6.9,6.89Zm-3.15,0A3.75,3.75,0,1,0,153.09,22h0a3.74,3.74,0,0,0,3.75-3.74ZM55,6.8H41.87V9.86h4.87v15h3.41v-15H55Zm66.52,14.44-3-9.69h-3.6l4.57,13.34h4.13l4.6-13.34h-3.6ZM165,13.79V11.55h-3.44V24.89H165v-8c0-1.45.93-2.16,2.38-2.16h1.88V11.55h-1.61A2.53,2.53,0,0,0,165,13.79Z"/><path class="cls-1" d="M17.54,0A17.54,17.54,0,1,1,0,17.54,17.54,17.54,0,0,1,17.54,0Z"/><path d="M28.37,14.12l2.12-2.31h-4.7a14.64,14.64,0,0,0-16.49,0H4.59l2.12,2.31a6.47,6.47,0,1,0,8.74,9.53h0l2.08,2.26,2.07-2.26a6.47,6.47,0,1,0,8.76-9.52Zm-17.3,9.15a4.38,4.38,0,1,1,4.38-4.37,4.38,4.38,0,0,1-4.38,4.37Zm6.47-4.5a7.15,7.15,0,0,0-4.86-6.41,12.6,12.6,0,0,1,9.72,0,7.14,7.14,0,0,0-4.86,6.41ZM24,23.27a4.38,4.38,0,1,1,4.38-4.37h0A4.38,4.38,0,0,1,24,23.27Zm0-6.67a2.3,2.3,0,1,0,2.29,2.3h0A2.29,2.29,0,0,0,24,16.6ZM13.36,18.9a2.3,2.3,0,1,1-2.29-2.3h0a2.29,2.29,0,0,1,2.29,2.3Z"/></g></g></svg>