<svg xmlns="http://www.w3.org/2000/svg" viewBox="0 0 30 14.65"><defs><style>.cls-1{fill:#baa57d;}</style></defs><g id="Layer_2" data-name="Layer 2"><g id="Layer_1-2" data-name="Layer 1"><path class="cls-1" d="M15,0a2.47,2.47,0,0,1,1.76.73L30,14l-.69.68L16.07,1.41a1.54,1.54,0,0,0-2.15,0L.69,14.65,0,14,13.24.73A2.45,2.45,0,0,1,15,0Z"/><path class="cls-1" d="M15,14.65a2.48,2.48,0,0,1-1.76-.72L0,.69.69,0,13.93,13.24a1.53,1.53,0,0,0,2.15,0L29.31,0,30,.69,16.76,13.93A2.5,2.5,0,0,1,15,14.65Z"/></g></g></svg>