<svg xmlns="http://www.w3.org/2000/svg" viewBox="0 0 39.2 38.33"><defs><style>.cls-1{fill:#baa57d;}</style></defs><g id="Layer_2" data-name="Layer 2"><g id="Layer_1-2" data-name="Layer 1"><path class="cls-1" d="M31.83,0H7.36A7.37,7.37,0,0,0,0,7.36V31a7.37,7.37,0,0,0,7.36,7.36H31.83A7.37,7.37,0,0,0,39.2,31V7.36A7.37,7.37,0,0,0,31.83,0Zm-21,23.56a2.88,2.88,0,0,1-.23-1A8.29,8.29,0,0,1,11,18.73a.82.82,0,0,1,.74-.43c.19,0,.36.07,4.18,1.64l1.12.46a1,1,0,0,1,.62,1,1,1,0,0,1-.69.93l-1.58.5C11.88,24,11.76,24.05,11.57,24A.83.83,0,0,1,10.86,23.56Zm8.8,2.87a25.42,25.42,0,0,1-.08,4,.83.83,0,0,1-.67.53,8.43,8.43,0,0,1-4.55-1.67,1,1,0,0,1-.21-.49.65.65,0,0,1,0-.34c.07-.19.17-.33,2.85-3.47l.78-.93A1,1,0,0,1,19,23.82a1,1,0,0,1,.66.94S19.66,26.43,19.66,26.43ZM19,18.62c-.19.06-.78.24-1.5-.93l-2-3.11c-1.23-1.93-2.91-4.56-3-4.8A.86.86,0,0,1,12.77,9c.73-.75,4.67-1.86,5.7-1.6a.84.84,0,0,1,.65.59c.06.34.54,7.46.61,9.06C19.79,18.38,19.21,18.56,19,18.62ZM21.5,19s1-1.34,1-1.34c2.16-2.95,2.27-3.11,2.43-3.21a.81.81,0,0,1,.85,0,8.42,8.42,0,0,1,2.7,4v0a.81.81,0,0,1-.35.78c-.16.11-.31.16-4.35,1.14a9.86,9.86,0,0,0-1.2.32.15.15,0,0,1,0,0,1,1,0,0,1-1.1-.48A1,1,0,0,1,21.5,19Zm4.12,10.16a.81.81,0,0,1-.85-.09,30.82,30.82,0,0,1-2.42-3.78l-.63-1a1,1,0,0,1,.11-1.22,1,1,0,0,1,1.1-.34l1.58.52a28.3,28.3,0,0,1,3.81,1.32.87.87,0,0,1,.29.81A8.24,8.24,0,0,1,25.62,29.16Z"/></g></g></svg>