<svg xmlns="http://www.w3.org/2000/svg" viewBox="0 0 12.97 25.95"><defs><style>.cls-1{fill:none;stroke:#baa57d;stroke-miterlimit:10;stroke-width:1.75px;fill-rule:evenodd;}</style></defs><g id="Layer_2" data-name="Layer 2"><g id="Layer_1-2" data-name="Layer 1"><path class="cls-1" d="M3.35,13.07V24.76a.3.3,0,0,0,.3.31H8a.3.3,0,0,0,.3-.31V12.88h3.15a.31.31,0,0,0,.3-.29L12,9a.29.29,0,0,0-.3-.32H8.29V6.14A1.08,1.08,0,0,1,9.37,5.06h2.41a.31.31,0,0,0,.32-.3V1.17a.3.3,0,0,0-.32-.29H7.69A4.34,4.34,0,0,0,3.35,5.24V8.69H1.18a.29.29,0,0,0-.3.3v3.58a.3.3,0,0,0,.3.31H3.35Z"/></g></g></svg>