<svg xmlns="http://www.w3.org/2000/svg" viewBox="0 0 77.57 35.08"><defs><style>.cls-1{isolation:isolate;}.cls-2{fill:#fff;}.cls-3{fill:#bf311a;}.cls-4{fill:#231f20;}.cls-5{fill:#58595b;}</style></defs><g id="Layer_2" data-name="Layer 2"><g id="Layer_1-2" data-name="Layer 1"><g class="cls-1"><path class="cls-2" d="M74.72,30.29h0ZM47.38,12.61h0Z"/><path class="cls-3" d="M55.13,14.54c-.49.79-.69,3.27-.52,4.91a4,4,0,0,0,.3,1.27,1,1,0,0,0,.9.6c.24,0,.39,0,4.93-1.48l2-.65A1.22,1.22,0,0,0,63.63,18a1.29,1.29,0,0,0-.79-1.33l-1.42-.58c-4.88-2-5.1-2.09-5.34-2.09a1.06,1.06,0,0,0-.95.53"/><path class="cls-3" d="M66,29.52c.08-.23.09-.38.1-5.15,0,0,0-2.1,0-2.12a1.23,1.23,0,0,0-.85-1.2,1.32,1.32,0,0,0-1.51.34l-1,1.18c-3.42,4-3.56,4.2-3.64,4.43a1,1,0,0,0-.06.44,1.19,1.19,0,0,0,.28.62c.79.94,4.59,2.34,5.8,2.13a1.07,1.07,0,0,0,.86-.67"/><path class="cls-3" d="M73.74,27.86c1.14-.45,3.64-3.63,3.82-4.85a1.06,1.06,0,0,0-.37-1c-.19-.14-.34-.2-4.87-1.69,0,0-2-.65-2-.67a1.24,1.24,0,0,0-1.4.45,1.3,1.3,0,0,0-.14,1.55l.8,1.3c2.69,4.37,2.9,4.68,3.09,4.83a1,1,0,0,0,1.08.11"/><path class="cls-3" d="M71.4,16.61c5.15-1.24,5.35-1.31,5.55-1.44a1.05,1.05,0,0,0,.44-1s0,0,0,0C77.26,12.87,75,9.58,74,9.05a1,1,0,0,0-1.09,0c-.2.13-.35.32-3.1,4.09L68.49,14.9a1.21,1.21,0,0,0,0,1.46,1.31,1.31,0,0,0,1.41.62l0,0a15.69,15.69,0,0,1,1.54-.41"/><path class="cls-3" d="M66.23,12.36h0c-.09-2-.71-11.13-.78-11.55a1.08,1.08,0,0,0-.83-.76c-1.32-.33-6.34,1.08-7.27,2a1.1,1.1,0,0,0-.32,1c.15.3,2.29,3.66,3.86,6.12l2.51,4c.92,1.5,1.67,1.27,1.92,1.19s1-.31.91-2.05"/><path class="cls-4" d="M2.44,33.91a3.92,3.92,0,0,0,3.38.46c1.39-.27,2.26-.9,3.1-3.55l4.16-13.07A2.25,2.25,0,0,0,13,16a1.54,1.54,0,0,0-1-.73c-.75-.2-1.67-.18-2.25,1.81l-2,6.68-.22.74L3.44,16.83l0,0s-.27-.7-.28-.7a1.52,1.52,0,0,0-1.94-.63,1.88,1.88,0,0,0-1,2.66l5.42,11a3.92,3.92,0,0,1,.15.45l0,.31a1.38,1.38,0,0,1-.41,1,1.3,1.3,0,0,1-1,.34l-.91,0A1.54,1.54,0,0,0,2,32.65a1.39,1.39,0,0,0,.45,1.26"/><path class="cls-4" d="M27.32,20.51a5.89,5.89,0,0,0-2.11-4.27A6.51,6.51,0,0,0,20,15.35c-2.68.46-4.28,2.37-4.65,5.53-.45,3.77.17,6.62,1.8,8.23a6.07,6.07,0,0,0,5.28,1.4c3.15-.44,4.58-2.18,4.58-3.27A1.45,1.45,0,0,0,25.8,25.7c-.41-.09-.76,0-1.52.68a3.94,3.94,0,0,1-3.52,1.06,2.61,2.61,0,0,1-1.84-1.63s-.14-.54-.13-.48c-.09-.49-.14-1,.16-1.16l.08-.06h7c.64,0,1-.08,1.15-.28.38-.42.35-1.64.19-3.32m-3.56,1H18c-.16-.11-.24-.3-.12-.88a3,3,0,0,1,.38-1c.08-.11.16-.23.23-.35a3,3,0,0,1,1.65-1c2-.5,3.46.54,3.69,2.3.11.77,0,.92,0,.92"/><path class="cls-4" d="M33.61,10.51a1.9,1.9,0,0,0-1.71.17,1.63,1.63,0,0,0-.74,1.63V28.86s.09.59.09.62a1.57,1.57,0,0,0,.85,1,1.79,1.79,0,0,0,1.5,0,1.67,1.67,0,0,0,1-1.61V12.22l-.11-.81a1.36,1.36,0,0,0-.84-.9"/><path class="cls-4" d="M46.88,15.17a5.09,5.09,0,0,0-4.11.81,1.67,1.67,0,0,1-.2.15l-.11.06-.35.15L42,16l-.09-.14,0-.09v0l-.09-.13a1.69,1.69,0,0,0-2.24-.32c-.44.25-.68.6-.68,1.63V33.13a1.68,1.68,0,0,0,.88,1.73,1.91,1.91,0,0,0,1.6.07,1.47,1.47,0,0,0,.85-.91l.1-.7V30.51l0-.45v-.14l0-.06.17-.53.51.34.18.13.15.11.17.1.17.08a5.46,5.46,0,0,0,4.66-.19c1.84-1,2.75-2.68,3-5.55.44-5.74-.88-8.49-4.41-9.18m-.17,12.16c-2.29,0-2.66-2-2.73-3.57,0,0,0-.9,0-.9s0-.67,0-.69c.14-2.66.7-3.71,2.1-4a2.46,2.46,0,0,1,2.2.32c.81.66,1.17,2,1.13,4.35,0,2.7-.49,4.49-2.7,4.49"/><path class="cls-5" d="M54.2,27.7a1,1,0,1,1-1,1,1,1,0,0,1,1-1m0,1.77a.82.82,0,1,0-.8-.81.8.8,0,0,0,.8.81m-.35-1.36h.4c.27,0,.39.1.39.32a.29.29,0,0,1-.29.3l.32.48H54.5l-.3-.47H54v.47h-.15Zm.15.49h.19c.16,0,.3,0,.3-.18s-.13-.17-.25-.17H54Z"/></g></g></g></svg>